<svg width="96" height="96" viewBox="0 0 96 96" fill="none" xmlns="http://www.w3.org/2000/svg">
<path opacity="0.2" d="M80.5015 81.2203L41.2644 58.2012L35.7712 61.9942L74.6159 84.6209L80.5015 81.2203Z" fill="#AAAAAA"/>
<path opacity="0.2" d="M60.2286 92.5992L20.9915 69.5801L15.4983 73.373L54.343 95.9998L60.2286 92.5992Z" fill="#AAAAAA"/>
<path d="M63.7604 30.997L74.8775 37.4057L74.7467 82.136L35.7712 59.7708L35.902 3.00781L63.7604 19.0951V30.997Z" fill="#C9C9C9"/>
<path d="M35.9011 3.00818L41.002 0L68.8603 16.0872L63.7595 19.0954L35.9011 3.00818Z" fill="#AAAAAA"/>
<path d="M74.8769 37.4057L79.9777 34.5283L79.8469 79.2585L74.7461 82.2667L74.8769 37.4057Z" fill="#AAAAAA"/>
<path d="M43.4874 42.245L54.6046 48.6537L54.4738 93.384L15.4983 71.0189L15.6291 14.2559L43.4874 30.3431V42.245Z" fill="#F4F4F4"/>
<path d="M15.6296 14.2562L20.7305 11.248L48.5888 27.3352L43.488 30.3434L15.6296 14.2562Z" fill="#DCDCDC"/>
<path d="M54.6049 48.6538L59.7057 45.7764L59.5749 90.5067L54.4741 93.5149L54.6049 48.6538Z" fill="#DCDCDC"/>
<path d="M63.7598 19.095L68.8606 16.0869L79.9778 34.5283L74.8769 37.4057L63.7598 19.095Z" fill="#C9C9C9"/>
<path d="M63.7598 19.0957L74.8769 37.4064L63.7598 30.9977V19.0957Z" fill="#DCDCDC"/>
<path d="M43.4878 30.3432L48.5886 27.335L59.7058 45.7764L54.605 48.6538L43.4878 30.3432Z" fill="#F4F4F4"/>
<path d="M43.4878 30.3428L54.605 48.6535L43.4878 42.2448V30.3428Z" fill="#C9C9C9"/>
<path d="M46.8756 52.4604V55.9702L23.228 42.1376V38.6279L46.8756 52.4604Z" fill="#C9C9C9"/>
<path d="M46.8753 59.0668V62.5765L23.2278 48.6923V45.1826L46.8753 59.0668Z" fill="#C9C9C9"/>
<path d="M46.8753 65.3641V68.8739L23.2278 54.9897V51.6348L46.8753 65.3641Z" fill="#C9C9C9"/>
</svg>
