<svg width="635" height="403" viewBox="0 0 635 403" fill="none" xmlns="http://www.w3.org/2000/svg">
<path d="M520.681 125.295L503.418 135.062L532.538 151.421L548.742 142.093" stroke="#D1D5D6" stroke-width="1.2" stroke-miterlimit="10"/>
<path d="M541.633 140.08L555.283 148.144C555.464 148.247 555.696 148.26 555.877 148.144L596.053 125.205C596.195 125.127 596.285 124.972 596.285 124.805V123.218L555.593 146.57L541.465 138.197V139.771C541.453 139.9 541.517 140.016 541.633 140.08Z" fill="#D1D5D6"/>
<path d="M514.178 123.914L527.364 131.746C527.544 131.849 527.777 131.862 527.957 131.746L567.553 109.774C567.694 109.697 567.785 109.542 567.785 109.374V107.787L527.712 130.043L514.01 122.031V123.605C513.998 123.721 514.075 123.837 514.178 123.914Z" fill="#D1D5D6"/>
<path d="M393.935 68.6821L374.556 79.1454L402.385 95.4145L422.112 84.0997" stroke="#D1D5D6" stroke-width="1.2" stroke-miterlimit="10"/>
<path d="M336.122 31.2153L297.843 52.6838L311.97 60.5667L335.425 74.2555L374.44 52.4258" stroke="#D1D5D6" stroke-width="1.2" stroke-miterlimit="10"/>
<path d="M483.55 250.493L468.145 259.292L496.026 274.606L510.011 266.336" stroke="#D1D5D6" stroke-width="1.2" stroke-miterlimit="10" stroke-linejoin="round"/>
<path d="M536.537 221.425L552.832 212.149" stroke="#D1D5D6" stroke-width="1.2" stroke-miterlimit="10" stroke-linejoin="round"/>
<path d="M562.005 236.83L578.3 227.541" stroke="#D1D5D6" stroke-width="1.2" stroke-miterlimit="10" stroke-linejoin="round"/>
<path d="M387.187 66.7601L400.927 74.5785C401.301 74.785 401.753 74.785 402.127 74.5785L453.502 45.898C453.644 45.8206 453.734 45.6658 453.734 45.498V43.9111L401.469 72.9271L387.019 64.8764V66.4504C387.019 66.5795 387.084 66.6956 387.187 66.7601Z" fill="#D1D5D6"/>
<path d="M415.945 330.678L440.755 316.318" stroke="#D1D5D6" stroke-width="1.2" stroke-miterlimit="10"/>
<path d="M310.589 246.881L263.338 273.246" stroke="#D1D5D6" stroke-width="1.2" stroke-miterlimit="10"/>
<path d="M323.233 240.598L316.834 244.185" stroke="#ACF3FD" stroke-width="0.5" stroke-miterlimit="10"/>
<path d="M187.318 175.212L152.883 194.81L117.381 175.212L152.03 155.614L187.318 175.212Z" stroke="#D1D5D6" stroke-width="1.2" stroke-miterlimit="10"/>
<path d="M98.7044 283.38L64.6052 302.797L29.448 283.38L63.7666 263.963L98.7044 283.38Z" stroke="#D1D5D6" stroke-width="1.2" stroke-miterlimit="10"/>
<path d="M387.548 281.045L462.094 238.908C462.92 238.443 463.423 237.566 463.423 236.611V230.405L387.548 273.303" fill="#45CAF2"/>
<path d="M319.272 241.668L387.561 281.031V273.29L317.543 232.921V238.662C317.53 239.914 318.188 241.049 319.272 241.668Z" fill="#50E6FF"/>
<path d="M384.71 375.33L439.852 344.186C440.677 343.721 441.181 342.844 441.181 341.889V335.683L384.697 367.589" fill="#45CAF2"/>
<path d="M334.548 346.443L384.71 375.33V367.589L332.806 337.128V343.437C332.806 344.676 333.464 345.824 334.548 346.443Z" fill="#84ECFD"/>
<path d="M464.597 196.473L477.757 204.305C478.054 204.485 478.415 204.485 478.712 204.305L528.693 175.444C528.835 175.366 528.925 175.211 528.925 175.044V173.457L478.221 202.95L464.417 194.577V196.151C464.417 196.293 464.481 196.409 464.597 196.473Z" fill="#ACF3FD"/>
<path d="M464.597 196.473L477.757 204.305C478.054 204.485 478.415 204.485 478.712 204.305L528.693 175.444C528.835 175.366 528.925 175.211 528.925 175.044V173.457L478.221 202.95L464.417 194.577V196.151C464.417 196.293 464.481 196.409 464.597 196.473Z" fill="#D1D5D6"/>
<path d="M414.9 82.2161L428.989 90.1636C429.363 90.37 429.814 90.37 430.188 90.1636L481.202 61.3411C481.344 61.2637 481.434 61.1089 481.434 60.9412V59.3542L429.518 88.5121L414.719 80.3324V81.9065C414.719 82.0355 414.784 82.1516 414.9 82.2161Z" fill="#D1D5D6"/>
<path d="M367.357 50.503L380.104 57.7538C380.478 57.9602 380.929 57.9602 381.304 57.7538L427.092 31.4085C427.234 31.3311 427.324 31.1763 427.324 31.0085V29.4216L380.646 56.1024L367.189 48.6194V50.1934C367.176 50.3224 367.241 50.4385 367.357 50.503Z" fill="#D1D5D6"/>
<path d="M329 29.332L341.747 36.5828C342.121 36.7892 342.573 36.7892 342.947 36.5828L388.413 10.0181C388.555 9.9407 388.645 9.78588 388.645 9.61816V8.03125L342.289 34.9313L328.832 27.4483V29.0223C328.82 29.1385 328.897 29.2546 329 29.332Z" fill="#D1D5D6"/>
<path d="M477.757 247.822L491.613 256.028L542.924 227.025C543.065 226.947 543.156 226.792 543.156 226.625V225.038L491.691 254.144L477.589 245.952V247.526C477.576 247.642 477.641 247.758 477.757 247.822Z" fill="#D1D5D6"/>
<path d="M504.154 263.537L517.972 271.819L569.088 242.545C569.23 242.468 569.32 242.313 569.32 242.145V240.559L518.049 269.936L503.986 261.653V263.24C503.986 263.356 504.051 263.472 504.154 263.537Z" fill="#D1D5D6"/>
<path d="M530.602 279.767L544.459 287.972L595.524 258.995C595.666 258.918 595.756 258.763 595.756 258.595V257.008L544.536 286.089L530.383 277.832L530.435 279.457C530.435 279.586 530.499 279.702 530.602 279.767Z" fill="#D1D5D6"/>
<path d="M558.483 296.643L572.43 304.835L623.598 275.394C623.74 275.316 623.83 275.161 623.83 274.994V273.407L572.43 302.823L558.315 294.488L558.302 296.333C558.302 296.462 558.367 296.578 558.483 296.643Z" fill="#D1D5D6"/>
<path d="M456.095 326.251L470.042 334.444L518.637 306.942C518.779 306.865 518.869 306.71 518.869 306.542V304.955L469.744 332.21L455.927 324.097L455.914 325.942C455.914 326.071 455.979 326.187 456.095 326.251Z" fill="#D1D5D6"/>
<path d="M412.447 300.25L426.885 308.312L476.184 280.696C476.326 280.619 476.416 280.464 476.416 280.296V278.709L427.291 305.964L413.474 297.851L413.461 299.696C411.697 300.438 411.628 300.932 412.447 300.25Z" fill="#D1D5D6"/>
<path d="M439 180.282L452.16 188.113C452.457 188.294 452.818 188.294 453.115 188.126L503.16 159.291C503.302 159.214 503.393 159.059 503.393 158.891V157.949L452.624 186.617L438.833 178.424V179.998C438.833 180.101 438.897 180.218 439 180.282Z" fill="#ACF3FD"/>
<path d="M439 180.282L452.16 188.113C452.457 188.294 452.818 188.294 453.115 188.126L503.16 159.291C503.302 159.214 503.393 159.059 503.393 158.891V157.949L452.624 186.617L438.833 178.424V179.998C438.833 180.101 438.897 180.218 439 180.282Z" fill="#D1D5D6"/>
<path d="M402.295 159.278L415.635 167.716L466.365 138.068C466.507 137.99 466.597 137.835 466.597 137.668V136.726L415.906 165.587L402.114 157.394V158.968C402.127 159.085 402.192 159.201 402.295 159.278Z" fill="#D1D5D6"/>
<path d="M377.601 144.815L390.941 153.253L441.671 123.605C441.813 123.528 441.903 123.373 441.903 123.205V122.263L391.212 151.124L377.42 142.932V144.506C377.42 144.635 377.485 144.751 377.601 144.815Z" fill="#D1D5D6"/>
<path d="M218.923 298.32L160.839 330.742L280.193 396.915L342.895 361.345" stroke="#D1D5D6" stroke-width="1.2" stroke-miterlimit="10"/>
<path d="M211.672 143.899L177.005 163.51" stroke="#D1D5D6" stroke-width="1.2" stroke-miterlimit="10"/>
<path d="M518.875 305.377L533.312 297.326" stroke="#D1D5D6" stroke-width="1.2" stroke-miterlimit="10"/>
<path d="M444.715 183.301L428.717 192.254L455.527 207.607L470.222 199.234" stroke="#D1D5D6" stroke-width="1.2" stroke-miterlimit="10"/>
<path d="M325.994 105.775L376.711 78.0876" stroke="#D1D5D6" stroke-width="1.2" stroke-miterlimit="10"/>
<path d="M316.576 62.9539L283.457 81.1969" stroke="#D1D5D6" stroke-width="1.2" stroke-miterlimit="10"/>
<path d="M134.126 184.328L83.8413 213.452L187.326 270.788L259.227 229.463" stroke="#D1D5D6" stroke-width="1.2" stroke-miterlimit="10"/>
<path d="M467.552 51.9226L415.274 80.3193L429.44 88.2409L480.879 59.3024L467.552 51.9226Z" stroke="#D1D5D6" stroke-width="0.5" stroke-miterlimit="10"/>
<path d="M439.826 36.3633L387.6 64.9019L401.443 72.5655L453.102 43.9237L439.826 36.3633Z" stroke="#D1D5D6" stroke-width="0.5" stroke-miterlimit="10"/>
<path d="M452.882 129.643L402.772 157.394L415.532 165.471L465.978 136.752L452.882 129.643Z" stroke="#D1D5D6" stroke-width="0.5" stroke-miterlimit="10"/>
<path d="M414.539 22.3906L367.834 48.6327L380.607 55.819L426.692 29.4479L414.539 22.3906Z" stroke="#D1D5D6" stroke-width="0.5" stroke-miterlimit="10"/>
<path d="M376.053 1.21899L329.413 27.4353L342.121 34.8796L388.026 8.05691L376.053 1.21899Z" stroke="#D1D5D6" stroke-width="0.5" stroke-miterlimit="10"/>
<path d="M389.29 306.319L334.6 336.792L384.968 365.783L439.4 334.948L389.29 306.319Z" stroke="#ACF3FD" stroke-width="3" stroke-miterlimit="10" stroke-linejoin="round"/>
<path d="M387.032 327.375L372.84 335.67L385.329 342.844L399.521 334.548L387.032 327.375Z" stroke="#50E6FF" stroke-width="0.5" stroke-miterlimit="10"/>
<path d="M387.38 324.33L405.017 334.509L384.968 345.876L367.576 335.903L387.38 324.33ZM387.38 324.149L367.267 335.916L384.981 346.069L405.352 334.522L387.38 324.149Z" fill="#32B0E7"/>
<path d="M387.38 324.149L367.267 335.916L384.981 346.069L405.34 334.522L387.38 324.149Z" stroke="#50E6FF" stroke-width="0.375" stroke-miterlimit="10"/>
<path d="M387.742 321.298L410.513 334.496L384.633 348.933L362.351 336.148L387.742 321.298ZM387.742 320.924L361.693 336.148L384.62 349.294L411.159 334.496L387.742 320.924Z" fill="#32B0E7"/>
<path d="M387.742 320.924L361.693 336.148L384.62 349.294L411.159 334.496L387.742 320.924Z" stroke="#50E6FF" stroke-width="0.25" stroke-miterlimit="10"/>
<path d="M388.09 318.253L415.997 334.458L384.271 351.965L357.088 336.38L388.09 318.253ZM388.09 317.698L356.12 336.393L384.259 352.533L416.964 334.483L388.09 317.698Z" fill="#32B0E7"/>
<path d="M388.089 317.698L356.132 336.38L384.27 352.52L416.976 334.47L388.089 317.698Z" stroke="#50E6FF" stroke-width="0.125" stroke-miterlimit="10"/>
<path d="M388.451 315.208L421.493 334.419L383.923 354.997L351.849 336.599L388.451 315.208ZM388.451 314.473L350.559 336.625L383.91 355.758L422.796 334.457L388.451 314.473Z" fill="#32B0E7"/>
<path d="M393.625 191.184L319.427 232.521L387.755 271.872L461.617 230.019L393.625 191.184Z" stroke="#ACF3FD" stroke-width="3" stroke-miterlimit="10" stroke-linejoin="round"/>
<path d="M390.568 219.749L371.306 231.012L388.259 240.74L407.521 229.477L390.568 219.749Z" stroke="#84ECFD" stroke-width="0.5" stroke-miterlimit="10"/>
<path d="M390.955 216.394L413.572 229.45L387.871 244.094L365.513 231.27L390.955 216.394ZM390.942 216.252L365.255 231.27L387.871 244.236L413.83 229.45L390.942 216.252Z" fill="#32B0E7"/>
<path d="M390.942 216.252L365.255 231.27L387.871 244.236L413.83 229.45L390.942 216.252Z" stroke="#84ECFD" stroke-width="0.4" stroke-miterlimit="10"/>
<path d="M391.329 213.039L419.623 229.412L387.484 247.435L359.72 231.515L391.329 213.039ZM391.329 212.743L359.204 231.515L387.472 247.732L420.126 229.412L391.329 212.743Z" fill="#32B0E7"/>
<path d="M391.328 212.743L359.216 231.528L387.483 247.745L420.15 229.425L391.328 212.743Z" stroke="#84ECFD" stroke-width="0.3" stroke-miterlimit="10"/>
<path d="M391.716 209.698L425.673 229.399L387.11 250.803L353.94 231.786L391.716 209.698ZM391.716 209.247L353.166 231.786L387.097 251.242L426.448 229.399L391.716 209.247Z" fill="#32B0E7"/>
<path d="M391.716 209.247L353.166 231.786L387.097 251.242L426.46 229.399L391.716 209.247Z" stroke="#84ECFD" stroke-width="0.2" stroke-miterlimit="10"/>
<path d="M392.103 206.344L431.725 229.36L386.723 254.157L348.16 232.031L392.103 206.344ZM392.103 205.737L347.128 232.031L386.723 254.738L432.782 229.36L392.103 205.737Z" fill="#32B0E7"/>
<path d="M392.103 205.737L347.128 232.031L386.723 254.751L432.77 229.373L392.103 205.737Z" stroke="#84ECFD" stroke-width="0.1" stroke-miterlimit="10"/>
<path d="M392.49 202.989L437.775 229.335L386.336 257.512L342.367 232.289L392.49 202.989ZM392.49 202.241L341.09 232.289L386.336 258.247L439.091 229.347L392.49 202.241Z" fill="#32B0E7"/>
<path d="M270.297 175.043L365.073 121.346C365.899 120.882 366.402 120.004 366.402 119.05V112.844L270.297 167.289" fill="#45CAF2"/>
<path d="M182.991 124.765L270.297 175.043V167.302L181.25 116.018V121.759C181.25 122.998 181.908 124.146 182.991 124.765Z" fill="#84ECFD"/>
<path d="M277.78 62.9661L183.107 115.708L270.297 165.909L364.544 112.522L277.78 62.9661Z" stroke="#ACF3FD" stroke-width="3" stroke-miterlimit="10" stroke-linejoin="round"/>
<path d="M274.709 100.471L250.609 114.56L271.819 126.726L295.92 112.638L274.709 100.471Z" stroke="#84ECFD" stroke-width="0.5" stroke-miterlimit="10"/>
<path d="M275.109 96.9493L302.28 112.612L271.419 130.262L244.519 114.831L275.109 96.9493ZM275.109 96.8203L244.313 114.831L271.419 130.378L302.5 112.612L275.109 96.8203Z" fill="#32B0E7"/>
<path d="M275.109 96.8203L244.313 114.831L271.419 130.378L302.5 112.612L275.109 96.8203Z" stroke="#84ECFD" stroke-width="0.4167" stroke-miterlimit="10"/>
<path d="M275.509 93.4146L308.653 112.574L271.019 133.771L238.429 115.077L275.509 93.4146ZM275.509 93.1694L238.004 115.089L271.019 134.029L309.079 112.587L275.509 93.1694Z" fill="#32B0E7"/>
<path d="M275.509 93.1694L238.004 115.102L271.019 134.029L309.079 112.587L275.509 93.1694Z" stroke="#84ECFD" stroke-width="0.3333" stroke-miterlimit="10"/>
<path d="M275.909 89.8917L315.014 112.547L270.619 137.306L232.34 115.36L275.909 89.8917ZM275.909 89.5176L231.708 115.36L270.619 137.68L315.672 112.56L275.909 89.5176Z" fill="#32B0E7"/>
<path d="M275.909 89.5176L231.708 115.36L270.619 137.68L315.672 112.56L275.909 89.5176Z" stroke="#84ECFD" stroke-width="0.25" stroke-miterlimit="10"/>
<path d="M276.309 86.3699L321.375 112.535L270.22 140.854L226.263 115.644L276.309 86.3699ZM276.309 85.8667L225.399 115.631L270.22 141.331L322.252 112.535L276.309 85.8667Z" fill="#32B0E7"/>
<path d="M276.309 85.8667L225.399 115.631L270.22 141.331L322.252 112.535L276.309 85.8667Z" stroke="#84ECFD" stroke-width="0.1667" stroke-miterlimit="10"/>
<path d="M276.709 82.8349L327.735 112.496L269.819 144.376L220.174 115.902L276.709 82.8349ZM276.709 82.2156L219.09 115.902L269.807 144.995L328.819 112.509L276.709 82.2156Z" fill="#32B0E7"/>
<path d="M276.708 82.2156L219.102 115.902L269.818 144.982L328.831 112.509L276.708 82.2156Z" stroke="#84ECFD" stroke-width="0.0833" stroke-miterlimit="10"/>
<path d="M277.109 79.3128L334.096 112.457L269.407 147.898L214.071 116.16L277.109 79.3128ZM277.109 78.5645L212.794 116.173L269.407 148.647L335.412 112.483L277.109 78.5645Z" fill="#32B0E7"/>
<path d="M587.68 235.604L633.997 209.466C634.397 209.246 634.629 208.82 634.629 208.369L634.694 205.543L587.68 231.889" fill="#45CAF2"/>
<path d="M544.975 211.104L587.693 235.604V231.902L544.149 206.924V209.672C544.136 210.265 544.459 210.807 544.975 211.104Z" fill="#84ECFD"/>
<path d="M591.266 182.011L545.994 207.234L587.68 231.231L632.745 205.698L591.266 182.011Z" stroke="#ACF3FD" stroke-width="3" stroke-miterlimit="10" stroke-linejoin="round"/>
<path d="M239.213 314.496L285.531 288.357C285.93 288.137 286.163 287.712 286.163 287.26L286.227 284.435L239.213 310.78" fill="#45CAF2"/>
<path d="M196.509 289.995L239.227 314.495V310.793L195.683 285.815V288.563C195.67 289.156 195.993 289.698 196.509 289.995Z" fill="#84ECFD"/>
<path d="M242.8 260.901L197.528 286.124L239.214 310.121L284.279 284.589L242.8 260.901Z" stroke="#ACF3FD" stroke-width="3" stroke-miterlimit="10" stroke-linejoin="round"/>
<path d="M241.329 278.835L229.808 285.57L239.949 291.389L251.47 284.654L241.329 278.835Z" stroke="#84ECFD" stroke-width="0.5" stroke-miterlimit="10"/>
<path d="M241.523 277.209L254.412 284.641L239.768 293.014L226.931 285.647L241.523 277.209ZM241.523 277.093L226.712 285.647L239.756 293.13L254.618 284.641L241.523 277.093Z" fill="#156AB3"/>
<path d="M241.523 277.093L226.712 285.647L239.756 293.13L254.618 284.641L241.523 277.093Z" stroke="#84ECFD" stroke-width="0.4167" stroke-miterlimit="10"/>
<path d="M241.716 275.596L257.34 284.628L239.575 294.639L224.054 285.724L241.716 275.596ZM241.716 275.338L223.615 285.724L239.575 294.884L257.779 284.628L241.716 275.338Z" fill="#156AB3"/>
<path d="M241.716 275.338L223.615 285.724L239.562 294.884L257.766 284.628L241.716 275.338Z" stroke="#84ECFD" stroke-width="0.3333" stroke-miterlimit="10"/>
<path d="M241.898 273.971L260.257 284.615L239.369 296.266L221.152 285.802L241.898 273.971ZM241.911 273.597L220.52 285.802L239.382 296.627L260.928 284.615L241.911 273.597Z" fill="#156AB3"/>
<path d="M241.91 273.597L220.506 285.802L239.368 296.627L260.914 284.615L241.91 273.597Z" stroke="#84ECFD" stroke-width="0.25" stroke-miterlimit="10"/>
<path d="M242.091 272.345L263.185 284.589L239.175 297.878L218.274 285.879L242.091 272.345ZM242.091 271.855L217.41 285.879L239.175 298.381L264.049 284.615L242.091 271.855Z" fill="#156AB3"/>
<path d="M242.091 271.855L217.41 285.879L239.188 298.368L264.062 284.602L242.091 271.855Z" stroke="#84ECFD" stroke-width="0.1667" stroke-miterlimit="10"/>
<path d="M242.284 270.72L266.114 284.577L238.994 299.504L215.397 285.957L242.284 270.72ZM242.284 270.101L214.313 285.944L238.981 300.11L267.197 284.577L242.284 270.101Z" fill="#156AB3"/>
<path d="M242.284 270.101L214.313 285.944L238.994 300.123L267.21 284.589L242.284 270.101Z" stroke="#84ECFD" stroke-width="0.0833" stroke-miterlimit="10"/>
<path d="M242.478 269.107L269.042 284.563L238.801 301.129L212.52 286.034L242.478 269.107ZM242.478 268.359L211.217 286.021L238.801 301.865L270.358 284.576L242.478 268.359Z" fill="#156AB3"/>
<path d="M277.806 202.744L244.881 221.103L275.948 238.972L308.306 220.303L277.806 202.744Z" stroke="#D1D5D6" stroke-width="1.2" stroke-miterlimit="10"/>
<path d="M87.5444 270.878L131.397 245.758" stroke="#D1D5D6" stroke-width="1.2" stroke-miterlimit="10"/>
<path d="M213.169 365.628L152.221 400.759L2.81909 317.53L47.5 293.5" stroke="#D1D5D6" stroke-width="1.2" stroke-miterlimit="10"/>
<path d="M314.125 61.7022C312.847 62.4376 312.847 63.6245 314.112 64.3599C315.376 65.0953 317.427 65.0953 318.705 64.3599C319.982 63.6245 319.982 62.4376 318.718 61.7022C317.453 60.9668 315.402 60.9668 314.125 61.7022Z" fill="#30BAEE"/>
<path d="M315.002 62.2051C314.215 62.6567 314.215 63.405 314.989 63.8565C315.776 64.3081 317.053 64.3081 317.84 63.8565C318.627 63.405 318.627 62.6696 317.853 62.2051C317.066 61.7536 315.789 61.7536 315.002 62.2051Z" fill="#DDE1E2"/>
<path d="M296.113 51.3805C294.836 52.1159 294.836 53.3029 296.1 54.0383C297.365 54.7736 299.416 54.7736 300.693 54.0383C301.971 53.3029 301.971 52.1159 300.706 51.3805C299.442 50.658 297.378 50.658 296.113 51.3805Z" fill="#30BAEE"/>
<path d="M296.978 51.8967C296.191 52.3482 296.191 53.0965 296.965 53.5481C297.752 53.9997 299.029 53.9997 299.816 53.5481C300.604 53.0965 300.603 52.3611 299.829 51.8967C299.042 51.4322 297.765 51.4322 296.978 51.8967Z" fill="#DDE1E2"/>
<path d="M333.18 72.7461C331.903 73.4815 331.903 74.6685 333.167 75.4039C334.432 76.1393 336.483 76.1393 337.76 75.4039C339.038 74.6685 339.038 73.4815 337.773 72.7461C336.509 72.0107 334.445 72.0107 333.18 72.7461Z" fill="#30BAEE"/>
<path d="M334.045 73.2491C333.258 73.7006 333.258 74.4489 334.032 74.9005C334.819 75.3521 336.096 75.3521 336.883 74.9005C337.67 74.4489 337.67 73.7135 336.896 73.2491C336.109 72.7975 334.832 72.7975 334.045 73.2491Z" fill="#DDE1E2"/>
<path d="M379.381 3.06376C378.104 3.79915 378.104 4.98611 379.368 5.72151C380.633 6.45691 382.684 6.45691 383.961 5.72151C385.239 4.98611 385.239 3.79915 383.974 3.06376C382.723 2.32836 380.658 2.32836 379.381 3.06376Z" fill="#30BAEE"/>
<path d="M380.258 3.5667C379.471 4.01826 379.471 4.76656 380.245 5.21812C381.032 5.66968 382.31 5.66968 383.097 5.21812C383.884 4.76656 383.884 4.03116 383.11 3.5667C382.323 3.11514 381.045 3.11514 380.258 3.5667Z" fill="#DDE1E2"/>
<path d="M208.305 143.125C207.027 143.86 207.027 145.047 208.292 145.783C209.556 146.518 211.607 146.518 212.885 145.783C214.162 145.047 214.162 143.86 212.898 143.125C211.633 142.389 209.582 142.389 208.305 143.125Z" fill="#30BAEE"/>
<path d="M209.182 143.642C208.395 144.093 208.395 144.841 209.169 145.293C209.956 145.745 211.233 145.745 212.02 145.293C212.807 144.841 212.807 144.093 212.033 143.642C211.233 143.177 209.969 143.177 209.182 143.642Z" fill="#D1D5D6"/>
<path d="M133.952 241.707C132.674 242.442 132.674 243.629 133.939 244.364C135.203 245.1 137.255 245.1 138.532 244.364C139.809 243.629 139.809 242.442 138.545 241.707C137.28 240.984 135.229 240.984 133.952 241.707Z" fill="#30BAEE"/>
<path d="M134.816 242.223C134.029 242.675 134.029 243.423 134.803 243.875C135.59 244.326 136.867 244.326 137.654 243.875C138.441 243.423 138.441 242.675 137.667 242.223C136.88 241.759 135.616 241.759 134.816 242.223Z" fill="#D1D5D6"/>
<path d="M82.1517 212.24C80.8744 212.975 80.8744 214.162 82.1388 214.898C83.4032 215.633 85.4546 215.633 86.7318 214.898C88.0091 214.162 88.0091 212.975 86.7447 212.24C85.4804 211.504 83.429 211.504 82.1517 212.24Z" fill="#30BAEE"/>
<path d="M83.0289 212.743C82.2419 213.194 82.2419 213.943 83.016 214.394C83.803 214.846 85.0803 214.846 85.8673 214.394C86.6543 213.943 86.6543 213.207 85.8802 212.743C85.0932 212.291 83.8159 212.291 83.0289 212.743Z" fill="#D1D5D6"/>
<path d="M185.223 269.381C183.946 270.116 183.946 271.303 185.211 272.039C186.475 272.774 188.526 272.774 189.804 272.039C191.081 271.303 191.081 270.116 189.816 269.381C188.552 268.645 186.501 268.645 185.223 269.381Z" fill="#30BAEE"/>
<path d="M186.101 269.897C185.314 270.349 185.314 271.097 186.088 271.549C186.875 272 188.152 272 188.939 271.549C189.726 271.097 189.726 270.349 188.952 269.897C188.165 269.433 186.888 269.433 186.101 269.897Z" fill="#D1D5D6"/>
<path d="M390.709 171.018L408.359 161.536" stroke="#D1D5D6" stroke-width="1.2" stroke-miterlimit="10"/>
<path d="M293.095 211.426L378.272 164.309" stroke="#D1D5D6" stroke-width="1.2" stroke-miterlimit="10"/>
<path d="M415.442 213.801L441.581 199.209" stroke="#D1D5D6" stroke-width="0.75" stroke-miterlimit="10"/>
<path d="M515.662 165.716L464.739 194.577L478.221 202.589L528.615 173.483L515.662 165.716Z" stroke="#D1D5D6" stroke-width="0.5" stroke-miterlimit="10" stroke-linejoin="round"/>
<path d="M466.538 167.118C466.507 167.1 466.468 167.099 466.437 167.117L445.977 178.743C445.946 178.76 445.927 178.793 445.927 178.829C445.927 178.864 445.945 178.897 445.976 178.916L447.221 179.656C447.252 179.674 447.29 179.674 447.322 179.656L467.732 168.008C467.763 167.991 467.782 167.958 467.782 167.922C467.783 167.887 467.764 167.854 467.734 167.836L466.538 167.118Z" fill="#DDE1E2" stroke="#DDE1E2" stroke-width="0.2" stroke-miterlimit="10" stroke-linejoin="round"/>
<path d="M430.451 145.934C430.42 145.916 430.382 145.915 430.35 145.933L409.891 157.559C409.86 157.576 409.841 157.609 409.84 157.645C409.84 157.68 409.859 157.713 409.889 157.732L411.134 158.471C411.165 158.49 411.204 158.49 411.235 158.472L431.646 146.824C431.676 146.807 431.696 146.774 431.696 146.738C431.696 146.703 431.678 146.67 431.647 146.652L430.451 145.934Z" fill="#DDE1E2" stroke="#DDE1E2" stroke-width="0.2" stroke-miterlimit="10" stroke-linejoin="round"/>
<path d="M405.738 131.093C405.707 131.075 405.668 131.074 405.637 131.092L385.177 142.718C385.146 142.735 385.127 142.768 385.127 142.804C385.126 142.839 385.145 142.872 385.176 142.89L386.421 143.63C386.452 143.649 386.49 143.649 386.521 143.631L406.932 131.983C406.963 131.965 406.982 131.933 406.982 131.897C406.983 131.862 406.964 131.829 406.934 131.81L405.738 131.093Z" fill="#DDE1E2" stroke="#DDE1E2" stroke-width="0.2" stroke-miterlimit="10" stroke-linejoin="round"/>
<path d="M444.403 68.2817C444.372 68.2631 444.333 68.2627 444.302 68.2805L423.843 79.906C423.812 79.9236 423.792 79.9564 423.792 79.992C423.792 80.0276 423.81 80.0607 423.841 80.0789L425.086 80.8189C425.117 80.8372 425.156 80.8376 425.187 80.8197L445.597 69.1716C445.628 69.154 445.647 69.1213 445.648 69.0858C445.648 69.0503 445.63 69.0172 445.599 68.9989L444.403 68.2817Z" fill="#DDE1E2" stroke="#DDE1E2" stroke-width="0.2" stroke-miterlimit="10" stroke-linejoin="round"/>
<path d="M416.626 52.7345C416.595 52.716 416.556 52.7155 416.525 52.7334L396.066 64.3589C396.035 64.3765 396.015 64.4093 396.015 64.4449C396.015 64.4805 396.033 64.5136 396.064 64.5318L397.309 65.2717C397.34 65.2901 397.378 65.2905 397.41 65.2726L417.82 53.6244C417.851 53.6068 417.87 53.5742 417.871 53.5387C417.871 53.5032 417.853 53.4701 417.822 53.4518L416.626 52.7345Z" fill="#DDE1E2" stroke="#DDE1E2" stroke-width="0.2" stroke-miterlimit="10" stroke-linejoin="round"/>
<path d="M395.583 36.3434C395.552 36.3249 395.513 36.3244 395.482 36.3423L375.023 47.9678C374.992 47.9854 374.972 48.0181 374.972 48.0538C374.972 48.0894 374.99 48.1225 375.021 48.1407L376.266 48.8806C376.297 48.899 376.335 48.8994 376.367 48.8815L396.777 37.2333C396.808 37.2157 396.827 37.1831 396.828 37.1476C396.828 37.112 396.81 37.079 396.779 37.0607L395.583 36.3434Z" fill="#DDE1E2" stroke="#DDE1E2" stroke-width="0.2" stroke-miterlimit="10" stroke-linejoin="round"/>
<path d="M356.846 15.5627C356.816 15.5441 356.777 15.5437 356.746 15.5615L336.286 27.187C336.255 27.2046 336.236 27.2374 336.236 27.273C336.235 27.3086 336.254 27.3417 336.285 27.3599L337.53 28.0999C337.561 28.1183 337.599 28.1186 337.63 28.1007L358.041 16.4526C358.072 16.435 358.091 16.4023 358.091 16.3668C358.092 16.3313 358.073 16.2982 358.043 16.28L356.846 15.5627Z" fill="#DDE1E2" stroke="#DDE1E2" stroke-width="0.2" stroke-miterlimit="10" stroke-linejoin="round"/>
<path d="M492.808 183.141C492.777 183.122 492.738 183.122 492.707 183.14L472.248 194.765C472.217 194.783 472.197 194.816 472.197 194.851C472.197 194.887 472.215 194.92 472.246 194.938L473.491 195.678C473.522 195.697 473.561 195.697 473.592 195.679L494.002 184.031C494.033 184.013 494.052 183.981 494.053 183.945C494.053 183.91 494.035 183.877 494.004 183.858L492.808 183.141Z" fill="#DDE1E2" stroke="#DDE1E2" stroke-width="0.2" stroke-miterlimit="10" stroke-linejoin="round"/>
<path d="M568.718 127.199C568.687 127.181 568.648 127.18 568.617 127.198L548.158 138.824C548.127 138.841 548.107 138.874 548.107 138.91C548.107 138.945 548.125 138.978 548.156 138.997L549.401 139.737C549.432 139.755 549.47 139.755 549.502 139.737L569.912 128.089C569.943 128.072 569.962 128.039 569.963 128.004C569.963 127.968 569.945 127.935 569.914 127.917L568.718 127.199Z" fill="#DDE1E2" stroke="#DDE1E2" stroke-width="0.2" stroke-miterlimit="10" stroke-linejoin="round"/>
<path d="M540.756 110.671C540.725 110.652 540.687 110.652 540.656 110.669L520.196 122.295C520.165 122.313 520.146 122.345 520.146 122.381C520.145 122.417 520.164 122.45 520.195 122.468L521.44 123.208C521.471 123.226 521.509 123.227 521.54 123.209L541.951 111.56C541.982 111.543 542.001 111.51 542.001 111.475C542.002 111.439 541.983 111.406 541.953 111.388L540.756 110.671Z" fill="#DDE1E2" stroke="#DDE1E2" stroke-width="0.2" stroke-miterlimit="10" stroke-linejoin="round"/>
<path d="M507.04 233.782C507.009 233.764 506.971 233.763 506.939 233.781L486.48 245.407C486.449 245.424 486.43 245.457 486.43 245.493C486.429 245.528 486.448 245.561 486.478 245.58L487.724 246.32C487.755 246.338 487.793 246.338 487.824 246.32L508.235 234.672C508.266 234.655 508.285 234.622 508.285 234.587C508.286 234.551 508.267 234.518 508.237 234.5L507.04 233.782Z" fill="#DDE1E2" stroke="#DDE1E2" stroke-width="0.2" stroke-miterlimit="10" stroke-linejoin="round"/>
<path d="M532.27 249.648C532.239 249.629 532.201 249.629 532.169 249.647L511.71 261.272C511.679 261.29 511.66 261.323 511.66 261.358C511.659 261.394 511.678 261.427 511.708 261.445L512.954 262.185C512.984 262.203 513.023 262.204 513.054 262.186L533.465 250.538C533.496 250.52 533.515 250.488 533.515 250.452C533.516 250.416 533.497 250.383 533.467 250.365L532.27 249.648Z" fill="#DDE1E2" stroke="#DDE1E2" stroke-width="0.2" stroke-miterlimit="10" stroke-linejoin="round"/>
<path d="M487.891 311.689C487.86 311.671 487.822 311.67 487.791 311.688L467.331 323.314C467.3 323.331 467.281 323.364 467.281 323.4C467.28 323.435 467.299 323.468 467.33 323.487L468.575 324.227C468.606 324.245 468.644 324.245 468.675 324.227L489.086 312.579C489.117 312.562 489.136 312.529 489.136 312.494C489.137 312.458 489.118 312.425 489.088 312.407L487.891 311.689Z" fill="#DDE1E2" stroke="#DDE1E2" stroke-width="0.2" stroke-miterlimit="10" stroke-linejoin="round"/>
<path d="M441.844 286.154C441.813 286.135 441.774 286.135 441.743 286.153L421.283 297.778C421.252 297.796 421.233 297.828 421.233 297.864C421.232 297.9 421.251 297.933 421.282 297.951L422.527 298.691C422.558 298.709 422.596 298.71 422.627 298.692L443.038 287.044C443.069 287.026 443.088 286.993 443.088 286.958C443.089 286.922 443.07 286.889 443.04 286.871L441.844 286.154Z" fill="#DDE1E2" stroke="#DDE1E2" stroke-width="0.2" stroke-miterlimit="10" stroke-linejoin="round"/>
<path d="M558.84 266.184C558.809 266.166 558.77 266.165 558.739 266.183L538.28 277.809C538.249 277.826 538.229 277.859 538.229 277.895C538.229 277.93 538.247 277.964 538.278 277.982L539.523 278.722C539.554 278.74 539.593 278.74 539.624 278.723L560.034 267.074C560.065 267.057 560.084 267.024 560.085 266.989C560.085 266.953 560.067 266.92 560.036 266.902L558.84 266.184Z" fill="#DDE1E2" stroke="#DDE1E2" stroke-width="0.2" stroke-miterlimit="10" stroke-linejoin="round"/>
<path d="M587.148 283.085C587.117 283.067 587.078 283.066 587.047 283.084L566.587 294.709C566.556 294.727 566.537 294.76 566.537 294.795C566.536 294.831 566.555 294.864 566.586 294.882L567.831 295.622C567.862 295.641 567.9 295.641 567.931 295.623L588.342 283.975C588.373 283.957 588.392 283.925 588.392 283.889C588.393 283.854 588.374 283.821 588.344 283.802L587.148 283.085Z" fill="#DDE1E2" stroke="#DDE1E2" stroke-width="0.2" stroke-miterlimit="10" stroke-linejoin="round"/>
<path d="M486.968 160.638C486.937 160.619 486.898 160.619 486.867 160.637L449.766 181.945C449.735 181.962 449.716 181.995 449.715 182.031C449.715 182.066 449.734 182.099 449.764 182.117L451.009 182.857C451.041 182.876 451.079 182.876 451.11 182.858L488.163 161.527C488.193 161.51 488.212 161.477 488.213 161.442C488.213 161.406 488.195 161.373 488.164 161.355L486.968 160.638Z" fill="#DDE1E2" stroke="#DDE1E2" stroke-width="0.2" stroke-miterlimit="10" stroke-linejoin="round"/>
<path d="M450.881 139.454C450.85 139.435 450.812 139.435 450.78 139.453L413.679 160.761C413.648 160.778 413.629 160.811 413.629 160.847C413.629 160.882 413.647 160.915 413.678 160.933L414.923 161.673C414.954 161.692 414.993 161.692 415.024 161.674L452.076 140.344C452.107 140.326 452.126 140.293 452.126 140.258C452.127 140.222 452.108 140.189 452.078 140.171L450.881 139.454Z" fill="#DDE1E2" stroke="#DDE1E2" stroke-width="0.2" stroke-miterlimit="10" stroke-linejoin="round"/>
<path d="M426.168 124.612C426.137 124.594 426.098 124.593 426.067 124.611L388.966 145.919C388.935 145.937 388.916 145.97 388.915 146.005C388.915 146.041 388.934 146.074 388.964 146.092L390.209 146.832C390.24 146.85 390.279 146.851 390.31 146.832L427.363 125.502C427.393 125.484 427.412 125.452 427.413 125.416C427.413 125.381 427.395 125.348 427.364 125.33L426.168 124.612Z" fill="#DDE1E2" stroke="#DDE1E2" stroke-width="0.2" stroke-miterlimit="10" stroke-linejoin="round"/>
<path d="M464.833 61.8008C464.802 61.7822 464.763 61.7818 464.732 61.7998L427.631 83.1077C427.6 83.1254 427.581 83.1581 427.58 83.1936C427.58 83.2292 427.599 83.2622 427.629 83.2804L428.874 84.0203C428.906 84.0387 428.944 84.039 428.975 84.021L466.028 62.6905C466.058 62.6728 466.077 62.6402 466.078 62.6047C466.078 62.5693 466.06 62.5363 466.029 62.5181L464.833 61.8008Z" fill="#DDE1E2" stroke="#DDE1E2" stroke-width="0.2" stroke-miterlimit="10" stroke-linejoin="round"/>
<path d="M437.056 46.2539C437.025 46.2353 436.986 46.2349 436.955 46.253L399.854 67.5608C399.823 67.5785 399.804 67.6112 399.803 67.6468C399.803 67.6823 399.822 67.7153 399.852 67.7335L401.097 68.4734C401.128 68.4919 401.167 68.4921 401.198 68.4741L438.251 47.1436C438.281 47.1259 438.3 47.0933 438.301 47.0578C438.301 47.0224 438.282 46.9894 438.252 46.9712L437.056 46.2539Z" fill="#DDE1E2" stroke="#DDE1E2" stroke-width="0.2" stroke-miterlimit="10" stroke-linejoin="round"/>
<path d="M416.013 29.8626C415.982 29.8439 415.943 29.8436 415.912 29.8616L378.811 51.1694C378.78 51.1871 378.761 51.2199 378.761 51.2554C378.76 51.291 378.779 51.324 378.81 51.3421L380.055 52.082C380.086 52.1005 380.124 52.1008 380.156 52.0827L417.208 30.7523C417.239 30.7346 417.258 30.7019 417.258 30.6665C417.258 30.631 417.24 30.5981 417.209 30.5798L416.013 29.8626Z" fill="#DDE1E2" stroke="#DDE1E2" stroke-width="0.2" stroke-miterlimit="10" stroke-linejoin="round"/>
<path d="M377.277 9.08179C377.246 9.06316 377.207 9.06279 377.176 9.08084L340.074 30.3887C340.044 30.4064 340.025 30.4391 340.024 30.4747C340.024 30.5102 340.043 30.5432 340.073 30.5614L341.318 31.3013C341.349 31.3197 341.388 31.32 341.419 31.302L378.471 9.9715C378.502 9.95381 378.521 9.92118 378.522 9.88573C378.522 9.85027 378.503 9.81731 378.473 9.79907L377.277 9.08179Z" fill="#DDE1E2" stroke="#DDE1E2" stroke-width="0.2" stroke-miterlimit="10" stroke-linejoin="round"/>
<path d="M513.238 176.66C513.207 176.642 513.168 176.641 513.137 176.659L476.036 197.967C476.005 197.985 475.986 198.018 475.986 198.053C475.985 198.089 476.004 198.122 476.035 198.14L477.28 198.88C477.311 198.898 477.349 198.899 477.381 198.881L514.433 177.55C514.464 177.532 514.483 177.5 514.483 177.464C514.483 177.429 514.465 177.396 514.434 177.378L513.238 176.66Z" fill="#DDE1E2" stroke="#DDE1E2" stroke-width="0.2" stroke-miterlimit="10" stroke-linejoin="round"/>
<path d="M585.851 122.818C585.82 122.799 585.782 122.799 585.75 122.816L551.946 142.023C551.915 142.04 551.896 142.073 551.895 142.109C551.895 142.144 551.914 142.178 551.944 142.196L553.189 142.936C553.22 142.954 553.259 142.954 553.29 142.937L587.045 123.708C587.076 123.69 587.096 123.657 587.096 123.622C587.096 123.586 587.078 123.553 587.047 123.535L585.851 122.818Z" fill="#DDE1E2" stroke="#DDE1E2" stroke-width="0.2" stroke-miterlimit="10" stroke-linejoin="round"/>
<path d="M556.05 107.537C556.02 107.518 555.981 107.518 555.95 107.535L523.985 125.492C523.954 125.509 523.934 125.542 523.934 125.578C523.934 125.614 523.952 125.647 523.983 125.665L525.228 126.405C525.259 126.423 525.297 126.424 525.328 126.406L557.244 108.427C557.275 108.41 557.295 108.377 557.295 108.341C557.296 108.306 557.277 108.272 557.247 108.254L556.05 107.537Z" fill="#DDE1E2" stroke="#DDE1E2" stroke-width="0.2" stroke-miterlimit="10" stroke-linejoin="round"/>
<path d="M527.471 227.302C527.44 227.283 527.401 227.283 527.369 227.301L490.268 248.609C490.237 248.627 490.218 248.659 490.218 248.695C490.218 248.73 490.236 248.763 490.267 248.782L491.512 249.521C491.543 249.54 491.582 249.54 491.613 249.522L528.665 228.192C528.696 228.174 528.715 228.141 528.715 228.106C528.716 228.07 528.697 228.038 528.667 228.019L527.471 227.302Z" fill="#DDE1E2" stroke="#DDE1E2" stroke-width="0.2" stroke-miterlimit="10" stroke-linejoin="round"/>
<path d="M552.701 243.167C552.67 243.148 552.631 243.148 552.6 243.166L515.499 264.474C515.468 264.492 515.449 264.524 515.448 264.56C515.448 264.595 515.467 264.628 515.497 264.647L516.742 265.386C516.773 265.405 516.812 265.405 516.843 265.387L553.896 244.057C553.926 244.039 553.945 244.006 553.946 243.971C553.946 243.935 553.927 243.903 553.897 243.884L552.701 243.167Z" fill="#DDE1E2" stroke="#DDE1E2" stroke-width="0.2" stroke-miterlimit="10" stroke-linejoin="round"/>
<path d="M508.322 305.209C508.291 305.19 508.252 305.19 508.221 305.208L471.12 326.515C471.089 326.533 471.07 326.566 471.069 326.601C471.069 326.637 471.088 326.67 471.118 326.688L472.363 327.428C472.395 327.446 472.433 327.447 472.464 327.429L509.517 306.098C509.547 306.081 509.566 306.048 509.567 306.012C509.567 305.977 509.549 305.944 509.518 305.926L508.322 305.209Z" fill="#DDE1E2" stroke="#DDE1E2" stroke-width="0.2" stroke-miterlimit="10" stroke-linejoin="round"/>
<path d="M462.274 279.673C462.243 279.654 462.204 279.654 462.173 279.672L425.072 300.98C425.041 300.997 425.022 301.03 425.022 301.066C425.021 301.101 425.04 301.134 425.07 301.152L426.316 301.892C426.347 301.911 426.385 301.911 426.417 301.893L463.469 280.563C463.5 280.545 463.519 280.512 463.519 280.477C463.519 280.441 463.501 280.408 463.47 280.39L462.274 279.673Z" fill="#DDE1E2" stroke="#DDE1E2" stroke-width="0.2" stroke-miterlimit="10" stroke-linejoin="round"/>
<path d="M579.27 259.704C579.239 259.685 579.2 259.685 579.169 259.703L542.068 281.011C542.037 281.028 542.018 281.061 542.018 281.096C542.017 281.132 542.036 281.165 542.067 281.183L543.312 281.923C543.343 281.942 543.381 281.942 543.413 281.924L580.465 260.593C580.496 260.576 580.515 260.543 580.515 260.508C580.515 260.472 580.497 260.439 580.466 260.421L579.27 259.704Z" fill="#DDE1E2" stroke="#DDE1E2" stroke-width="0.2" stroke-miterlimit="10" stroke-linejoin="round"/>
<path d="M607.578 276.604C607.547 276.586 607.508 276.585 607.477 276.604L570.375 297.911C570.345 297.929 570.326 297.962 570.325 297.997C570.325 298.033 570.344 298.066 570.374 298.084L571.619 298.824C571.65 298.842 571.689 298.843 571.72 298.825L608.773 277.494C608.803 277.477 608.822 277.444 608.823 277.408C608.823 277.373 608.804 277.34 608.774 277.322L607.578 276.604Z" fill="#DDE1E2" stroke="#DDE1E2" stroke-width="0.2" stroke-miterlimit="10" stroke-linejoin="round"/>
<path d="M462.688 270.813L411.875 298.75L425.25 306.75L476.415 278.709L462.688 270.813Z" stroke="#D1D5D6" stroke-width="0.75" stroke-miterlimit="10"/>
<path d="M505.663 297.391L456.378 325.31L468.609 332.793L518.874 305.377L505.663 297.391Z" stroke="#D1D5D6" stroke-width="0.75" stroke-miterlimit="10"/>
<path d="M529.802 217.646L478.208 245.952L491.704 253.964L542.511 225.038L529.802 217.646Z" stroke="#D1D5D6" stroke-width="0.5" stroke-miterlimit="10"/>
<path d="M555.735 232.766L504.618 261.64L518.113 269.639L568.675 240.546L555.735 232.766Z" stroke="#D1D5D6" stroke-width="0.5" stroke-miterlimit="10"/>
<path d="M424.821 307.183L456.611 325.517" stroke="#D1D5D6" stroke-width="1.2" stroke-miterlimit="10"/>
<path d="M462.894 270.723L477.086 262.698" stroke="#D1D5D6" stroke-width="1.2" stroke-miterlimit="10" stroke-linecap="round"/>
<path d="M582.596 249.487L531.002 277.793L544.498 285.805L595.137 256.996L582.596 249.487Z" stroke="#D1D5D6" stroke-width="0.5" stroke-miterlimit="10"/>
<path d="M610.541 265.704L558.948 294.488L572.43 302.5L623.185 273.406L610.541 265.704Z" stroke="#D1D5D6" stroke-width="0.5" stroke-miterlimit="10"/>
<path d="M519.83 289.34L505.78 297.417" stroke="#D1D5D6" stroke-width="1.2" stroke-miterlimit="10"/>
<path d="M534.692 281.586L520.242 289.689L550.652 307.48L565.605 298.759" stroke="#D1D5D6" stroke-width="1.2" stroke-miterlimit="10"/>
<path d="M215.478 361.435C214.2 362.17 214.2 363.357 215.465 364.092C216.729 364.828 218.78 364.828 220.058 364.092C221.335 363.357 221.335 362.17 220.071 361.435C218.806 360.699 216.755 360.699 215.478 361.435Z" fill="#30BAEE"/>
<path d="M216.355 361.938C215.568 362.389 215.568 363.138 216.342 363.589C217.129 364.041 218.406 364.041 219.193 363.589C219.98 363.138 219.98 362.402 219.206 361.938C218.419 361.486 217.142 361.486 216.355 361.938Z" fill="#D1D5D6"/>
<path d="M150.027 399.16C148.75 399.895 148.75 401.082 150.014 401.817C151.279 402.553 153.33 402.553 154.607 401.817C155.885 401.082 155.885 399.895 154.62 399.16C153.369 398.424 151.304 398.424 150.027 399.16Z" fill="#30BAEE"/>
<path d="M150.904 399.663C150.117 400.114 150.117 400.863 150.891 401.314C151.678 401.766 152.956 401.766 153.743 401.314C154.53 400.863 154.53 400.114 153.756 399.663C152.969 399.211 151.691 399.211 150.904 399.663Z" fill="#D1D5D6"/>
<path d="M1.05112 315.995C-0.226146 316.731 -0.226146 317.918 1.03822 318.653C2.30259 319.388 4.35396 319.388 5.63123 318.653C6.9085 317.918 6.90851 316.731 5.64414 315.995C4.37977 315.26 2.32839 315.26 1.05112 315.995Z" fill="#30BAEE"/>
<path d="M1.92855 316.498C1.14154 316.95 1.14154 317.698 1.91564 318.15C2.70265 318.601 3.97992 318.601 4.76692 318.15C5.55393 317.698 5.55393 316.963 4.77983 316.498C3.99282 316.047 2.71555 316.047 1.92855 316.498Z" fill="#D1D5D6"/>
<path d="M159.639 329.439C158.362 330.174 158.362 331.361 159.626 332.097C160.891 332.832 162.942 332.832 164.219 332.097C165.497 331.361 165.497 330.174 164.232 329.439C162.968 328.703 160.917 328.703 159.639 329.439Z" fill="#30BAEE"/>
<path d="M160.516 329.941C159.729 330.393 159.729 331.141 160.504 331.593C161.291 332.044 162.568 332.044 163.355 331.593C164.142 331.141 164.142 330.406 163.368 329.941C162.581 329.49 161.303 329.49 160.516 329.941Z" fill="#D1D5D6"/>
<path d="M278.013 395.341C276.735 396.076 276.735 397.263 278 397.999C279.264 398.734 281.315 398.734 282.593 397.999C283.87 397.263 283.87 396.076 282.606 395.341C281.341 394.605 279.277 394.605 278.013 395.341Z" fill="#30BAEE"/>
<path d="M278.877 395.844C278.09 396.295 278.09 397.044 278.864 397.495C279.651 397.947 280.928 397.947 281.715 397.495C282.502 397.044 282.502 396.295 281.728 395.844C280.941 395.392 279.664 395.392 278.877 395.844Z" fill="#D1D5D6"/>
<path d="M78.0099 359.512C76.7326 360.248 76.7326 361.435 77.997 362.17C79.2613 362.906 81.3127 362.906 82.59 362.17C83.8673 361.435 83.8672 360.248 82.6029 359.512C81.3385 358.777 79.2871 358.777 78.0099 359.512Z" fill="#30BAEE"/>
<path d="M78.887 360.016C78.1 360.467 78.1 361.216 78.8741 361.667C79.6611 362.119 80.9384 362.119 81.7254 361.667C82.5124 361.216 82.5124 360.48 81.7383 360.016C80.9513 359.564 79.674 359.564 78.887 360.016Z" fill="#D1D5D6"/>
<path d="M454.173 323.697C452.895 324.432 452.895 325.619 454.16 326.355C455.424 327.09 457.476 327.09 458.753 326.355C460.03 325.619 460.03 324.432 458.766 323.697C457.501 322.962 455.45 322.962 454.173 323.697Z" fill="#30BAEE"/>
<path d="M455.05 324.201C454.263 324.652 454.263 325.401 455.037 325.852C455.824 326.304 457.101 326.304 457.888 325.852C458.675 325.401 458.675 324.665 457.901 324.201C457.114 323.749 455.837 323.749 455.05 324.201Z" fill="#DDE1E2"/>
<path d="M466.482 331.837C465.204 332.572 465.204 333.759 466.469 334.495C467.733 335.23 469.784 335.23 471.062 334.495C472.339 333.759 472.339 332.572 471.075 331.837C469.823 331.102 467.759 331.102 466.482 331.837Z" fill="#30BAEE"/>
<path d="M467.359 332.341C466.572 332.792 466.572 333.54 467.346 333.992C468.133 334.444 469.41 334.444 470.197 333.992C470.984 333.54 470.984 332.792 470.21 332.341C469.423 331.889 468.146 331.889 467.359 332.341Z" fill="#DDE1E2"/>
<path d="M517.765 288.089C516.488 288.824 516.488 290.011 517.752 290.746C519.017 291.482 521.068 291.482 522.345 290.746C523.623 290.011 523.623 288.824 522.358 288.089C521.094 287.353 519.03 287.353 517.765 288.089Z" fill="#30BAEE"/>
<path d="M518.63 288.605C517.843 289.056 517.843 289.805 518.617 290.256C519.404 290.708 520.681 290.708 521.468 290.256C522.255 289.805 522.255 289.056 521.481 288.605C520.694 288.14 519.417 288.14 518.63 288.605Z" fill="#DDE1E2"/>
<path d="M473.783 262.131C472.506 262.866 472.506 264.053 473.77 264.789C475.035 265.524 477.086 265.524 478.363 264.789C479.641 264.053 479.641 262.866 478.376 262.131C477.112 261.395 475.061 261.395 473.783 262.131Z" fill="#30BAEE"/>
<path d="M474.648 262.647C473.861 263.098 473.861 263.847 474.635 264.298C475.422 264.75 476.699 264.75 477.486 264.298C478.273 263.847 478.273 263.098 477.499 262.647C476.712 262.182 475.448 262.182 474.648 262.647Z" fill="#DDE1E2"/>
<path d="M553.774 100.007L514.308 121.76L527.803 129.772L567.501 107.903L553.774 100.007Z" stroke="#D1D5D6" stroke-width="0.5" stroke-miterlimit="10" stroke-linejoin="round"/>
<path d="M582.493 115.786L542.046 138.222L555.541 146.234L595.614 123.231L582.493 115.786Z" stroke="#D1D5D6" stroke-width="0.5" stroke-miterlimit="10"/>
<path d="M497.187 154.582L518.849 142.209" stroke="#D1D5D6" stroke-width="1.2" stroke-miterlimit="10"/>
<path d="M515.417 142.028C514.14 142.764 514.14 143.95 515.404 144.686C516.669 145.421 518.72 145.421 519.997 144.686C521.274 143.95 521.274 142.764 520.01 142.028C518.746 141.293 516.694 141.293 515.417 142.028Z" fill="#30BAEE"/>
<path d="M516.282 142.532C515.495 142.983 515.495 143.731 516.269 144.183C517.056 144.635 518.333 144.635 519.12 144.183C519.907 143.731 519.907 142.983 519.133 142.532C518.346 142.08 517.081 142.08 516.282 142.532Z" fill="#DDE1E2"/>
<path d="M530.396 149.873C529.119 150.608 529.119 151.795 530.383 152.53C531.647 153.266 533.699 153.266 534.976 152.53C536.253 151.795 536.253 150.608 534.989 149.873C533.724 149.137 531.673 149.137 530.396 149.873Z" fill="#30BAEE"/>
<path d="M531.273 150.388C530.486 150.84 530.486 151.588 531.26 152.04C532.047 152.491 533.325 152.491 534.112 152.04C534.899 151.588 534.899 150.84 534.125 150.388C533.338 149.924 532.06 149.924 531.273 150.388Z" fill="#DDE1E2"/>
<path d="M501.419 133.655C500.141 134.39 500.141 135.577 501.406 136.313C502.67 137.048 504.721 137.048 505.999 136.313C507.276 135.577 507.276 134.39 506.012 133.655C504.747 132.919 502.683 132.919 501.419 133.655Z" fill="#30BAEE"/>
<path d="M502.283 134.171C501.496 134.623 501.496 135.371 502.27 135.823C503.057 136.274 504.334 136.274 505.121 135.823C505.908 135.371 505.908 134.636 505.134 134.171C504.347 133.707 503.07 133.707 502.283 134.171Z" fill="#DDE1E2"/>
<path d="M587.112 117.683C585.835 118.418 585.835 119.605 587.099 120.341C588.363 121.076 590.415 121.076 591.692 120.341C592.969 119.605 592.969 118.418 591.705 117.683C590.441 116.947 588.389 116.947 587.112 117.683Z" fill="#30BAEE"/>
<path d="M587.976 118.199C587.189 118.65 587.189 119.399 587.963 119.85C588.75 120.302 590.028 120.302 590.815 119.85C591.602 119.399 591.602 118.663 590.828 118.199C590.041 117.734 588.776 117.734 587.976 118.199Z" fill="#DDE1E2"/>
<path d="M557.709 102.201C556.431 102.936 556.431 104.123 557.696 104.858C558.96 105.594 561.011 105.594 562.289 104.858C563.566 104.123 563.566 102.936 562.302 102.201C561.037 101.465 558.973 101.465 557.709 102.201Z" fill="#30BAEE"/>
<path d="M558.573 102.704C557.786 103.155 557.786 103.904 558.56 104.355C559.347 104.807 560.624 104.807 561.411 104.355C562.198 103.904 562.198 103.155 561.424 102.704C560.637 102.252 559.36 102.252 558.573 102.704Z" fill="#DDE1E2"/>
<path d="M530.577 296.397C529.299 297.133 529.3 298.32 530.564 299.055C531.828 299.79 533.88 299.79 535.157 299.055C536.434 298.32 536.434 297.133 535.17 296.397C533.905 295.662 531.841 295.662 530.577 296.397Z" fill="#30BAEE"/>
<path d="M531.441 296.9C530.654 297.352 530.654 298.1 531.428 298.552C532.215 299.003 533.493 299.003 534.28 298.552C535.067 298.1 535.067 297.352 534.293 296.9C533.506 296.449 532.228 296.449 531.441 296.9Z" fill="#DDE1E2"/>
<path d="M548.381 306.061C547.104 306.796 547.104 307.983 548.368 308.719C549.632 309.454 551.684 309.454 552.961 308.719C554.238 307.983 554.238 306.796 552.974 306.061C551.71 305.326 549.645 305.326 548.381 306.061Z" fill="#30BAEE"/>
<path d="M549.245 306.564C548.458 307.015 548.458 307.764 549.232 308.215C550.019 308.667 551.297 308.667 552.084 308.215C552.871 307.764 552.871 307.015 552.096 306.564C551.309 306.112 550.032 306.112 549.245 306.564Z" fill="#DDE1E2"/>
<path d="M586.789 251.77C585.512 252.506 585.512 253.693 586.776 254.428C588.041 255.163 590.092 255.163 591.369 254.428C592.647 253.693 592.647 252.506 591.382 251.77C590.118 251.035 588.054 251.035 586.789 251.77Z" fill="#30BAEE"/>
<path d="M587.654 252.287C586.867 252.738 586.867 253.486 587.641 253.938C588.428 254.39 589.705 254.39 590.492 253.938C591.279 253.486 591.279 252.738 590.505 252.287C589.718 251.822 588.441 251.822 587.654 252.287Z" fill="#DDE1E2"/>
<path d="M614.696 268.091C613.419 268.826 613.419 270.013 614.683 270.749C615.947 271.484 617.999 271.484 619.276 270.749C620.553 270.013 620.553 268.826 619.289 268.091C618.025 267.355 615.96 267.355 614.696 268.091Z" fill="#30BAEE"/>
<path d="M615.56 268.594C614.773 269.045 614.773 269.794 615.547 270.245C616.334 270.697 617.612 270.697 618.399 270.245C619.186 269.794 619.186 269.045 618.412 268.594C617.625 268.142 616.347 268.142 615.56 268.594Z" fill="#DDE1E2"/>
<path d="M423.195 305.507C421.918 306.242 421.918 307.429 423.183 308.165C424.447 308.9 426.498 308.9 427.776 308.165C429.053 307.429 429.053 306.242 427.788 305.507C426.524 304.771 424.46 304.771 423.195 305.507Z" fill="#30BAEE"/>
<path d="M424.06 306.01C423.273 306.461 423.273 307.21 424.047 307.661C424.834 308.113 426.111 308.113 426.898 307.661C427.685 307.21 427.685 306.461 426.911 306.01C426.124 305.558 424.847 305.558 424.06 306.01Z" fill="#DDE1E2"/>
<path d="M456.624 131.591C455.347 132.326 455.347 133.513 456.611 134.249C457.876 134.984 459.927 134.984 461.204 134.249C462.481 133.513 462.482 132.326 461.217 131.591C459.953 130.856 457.888 130.856 456.624 131.591Z" fill="#30BAEE"/>
<path d="M457.489 132.107C456.702 132.559 456.702 133.307 457.476 133.759C458.263 134.21 459.54 134.21 460.327 133.759C461.114 133.307 461.114 132.559 460.34 132.107C459.553 131.643 458.276 131.643 457.489 132.107Z" fill="#DDE1E2"/>
<path d="M428.163 114.806L377.962 142.906L391.187 151.021L441.336 122.289L428.163 114.806Z" stroke="#D1D5D6" stroke-width="0.5" stroke-miterlimit="10"/>
<path d="M390.322 171.638L365.589 156.994L382.607 147.795" stroke="#D1D5D6" stroke-width="1.2" stroke-miterlimit="10"/>
<path d="M431.943 117.335C430.666 118.07 430.666 119.257 431.93 119.992C433.194 120.728 435.246 120.728 436.523 119.992C437.8 119.257 437.8 118.07 436.536 117.335C435.272 116.599 433.207 116.599 431.943 117.335Z" fill="#30BAEE"/>
<path d="M432.807 117.838C432.02 118.289 432.02 119.038 432.795 119.489C433.582 119.941 434.859 119.941 435.646 119.489C436.433 119.038 436.433 118.302 435.659 117.838C434.872 117.386 433.594 117.386 432.807 117.838Z" fill="#DDE1E2"/>
<path d="M386.851 169.212C385.574 169.948 385.574 171.135 386.838 171.87C388.103 172.605 390.154 172.605 391.431 171.87C392.709 171.135 392.709 169.948 391.444 169.212C390.18 168.477 388.128 168.477 386.851 169.212Z" fill="#30BAEE"/>
<path d="M387.729 169.715C386.942 170.167 386.942 170.915 387.716 171.367C388.503 171.818 389.78 171.818 390.567 171.367C391.354 170.915 391.354 170.167 390.58 169.715C389.793 169.264 388.516 169.264 387.729 169.715Z" fill="#DDE1E2"/>
<path d="M364.119 155.265C362.841 156.001 362.841 157.188 364.106 157.923C365.37 158.658 367.422 158.658 368.699 157.923C369.976 157.188 369.976 156.001 368.712 155.265C367.447 154.53 365.396 154.53 364.119 155.265Z" fill="#30BAEE"/>
<path d="M364.996 155.769C364.209 156.22 364.209 156.968 364.983 157.42C365.77 157.872 367.047 157.872 367.834 157.42C368.621 156.968 368.621 156.233 367.847 155.769C367.06 155.317 365.783 155.317 364.996 155.769Z" fill="#DDE1E2"/>
<path d="M372.853 78.1646C371.576 78.9 371.576 80.0869 372.84 80.8223C374.105 81.5577 376.156 81.5577 377.433 80.8223C378.711 80.0869 378.71 78.9 377.446 78.1646C376.182 77.4292 374.13 77.4292 372.853 78.1646Z" fill="#30BAEE"/>
<path d="M373.73 78.6675C372.943 79.1191 372.943 79.8674 373.717 80.3189C374.504 80.7705 375.782 80.7705 376.569 80.3189C377.356 79.8674 377.356 79.132 376.582 78.6675C375.795 78.216 374.517 78.216 373.73 78.6675Z" fill="#DDE1E2"/>
<path d="M399.998 94.1634C398.721 94.8988 398.721 96.0857 399.985 96.8211C401.25 97.5565 403.301 97.5565 404.578 96.8211C405.856 96.0857 405.856 94.8988 404.591 94.1634C403.327 93.428 401.263 93.428 399.998 94.1634Z" fill="#30BAEE"/>
<path d="M400.863 94.6663C400.076 95.1179 400.076 95.8662 400.85 96.3177C401.637 96.7693 402.914 96.7693 403.701 96.3177C404.488 95.8662 404.488 95.1308 403.714 94.6663C402.927 94.2147 401.65 94.2147 400.863 94.6663Z" fill="#DDE1E2"/>
<path d="M443.709 38.479C442.432 39.2144 442.432 40.4014 443.696 41.1368C444.961 41.8722 447.012 41.8722 448.289 41.1368C449.567 40.4014 449.567 39.2144 448.302 38.479C447.038 37.7436 444.974 37.7436 443.709 38.479Z" fill="#30BAEE"/>
<path d="M444.574 38.9821C443.787 39.4337 443.787 40.182 444.561 40.6336C445.348 41.0851 446.625 41.0851 447.412 40.6336C448.199 40.182 448.199 39.4337 447.425 38.9821C446.638 38.5177 445.361 38.5177 444.574 38.9821Z" fill="#DDE1E2"/>
<path d="M471.061 54.0384C469.784 54.7738 469.784 55.9607 471.048 56.6961C472.312 57.4315 474.364 57.4315 475.641 56.6961C476.918 55.9607 476.918 54.7738 475.654 54.0384C474.402 53.303 472.338 53.303 471.061 54.0384Z" fill="#30BAEE"/>
<path d="M471.938 54.542C471.151 54.9936 471.151 55.7419 471.925 56.1935C472.712 56.645 473.99 56.645 474.777 56.1935C475.564 55.7419 475.564 55.0065 474.79 54.542C474.003 54.0905 472.725 54.0905 471.938 54.542Z" fill="#DDE1E2"/>
<path d="M519.546 168.232C518.268 168.967 518.268 170.154 519.533 170.889C520.797 171.625 522.848 171.625 524.126 170.889C525.403 170.154 525.403 168.967 524.139 168.232C522.887 167.496 520.823 167.496 519.546 168.232Z" fill="#30BAEE"/>
<path d="M520.423 168.748C519.636 169.199 519.636 169.947 520.41 170.399C521.197 170.85 522.474 170.85 523.261 170.399C524.048 169.947 524.048 169.212 523.274 168.748C522.487 168.283 521.21 168.283 520.423 168.748Z" fill="#DDE1E2"/>
<path d="M418.499 24.5581C417.222 25.2935 417.222 26.4805 418.486 27.2159C419.751 27.9513 421.802 27.9513 423.08 27.2159C424.357 26.4805 424.357 25.2935 423.092 24.5581C421.828 23.8227 419.777 23.8227 418.499 24.5581Z" fill="#30BAEE"/>
<path d="M419.377 25.0613C418.59 25.5129 418.59 26.2612 419.364 26.7127C420.151 27.1643 421.428 27.1643 422.215 26.7127C423.002 26.2612 423.002 25.5258 422.228 25.0613C421.441 24.6098 420.164 24.6098 419.377 25.0613Z" fill="#DDE1E2"/>
<path d="M438.897 198.125C437.62 198.861 437.62 200.048 438.884 200.783C440.149 201.518 442.2 201.518 443.477 200.783C444.754 200.048 444.754 198.861 443.49 198.125C442.226 197.39 440.174 197.39 438.897 198.125Z" fill="#30BAEE"/>
<path d="M439.761 198.628C438.974 199.08 438.974 199.828 439.748 200.279C440.535 200.731 441.813 200.731 442.6 200.279C443.387 199.828 443.387 199.08 442.613 198.628C441.826 198.176 440.561 198.176 439.761 198.628Z" fill="#DDE1E2"/>
<path d="M427.027 191.21C425.75 191.945 425.75 193.132 427.015 193.868C428.279 194.603 430.33 194.603 431.608 193.868C432.885 193.132 432.885 191.945 431.62 191.21C430.356 190.474 428.305 190.474 427.027 191.21Z" fill="#30BAEE"/>
<path d="M427.904 191.713C427.117 192.164 427.117 192.913 427.891 193.364C428.678 193.816 429.956 193.816 430.743 193.364C431.53 192.913 431.53 192.177 430.756 191.713C429.956 191.261 428.691 191.261 427.904 191.713Z" fill="#DDE1E2"/>
<path d="M453.14 206.15C451.863 206.885 451.863 208.072 453.128 208.807C454.392 209.543 456.443 209.543 457.721 208.807C458.998 208.072 458.998 206.885 457.733 206.15C456.482 205.414 454.418 205.414 453.14 206.15Z" fill="#30BAEE"/>
<path d="M454.018 206.653C453.231 207.105 453.231 207.853 454.005 208.305C454.792 208.756 456.069 208.756 456.856 208.305C457.643 207.853 457.643 207.105 456.869 206.653C456.082 206.202 454.805 206.202 454.018 206.653Z" fill="#DDE1E2"/>
<path d="M315.105 242.791C313.828 243.526 313.828 244.713 315.092 245.448C316.357 246.184 318.408 246.184 319.685 245.448C320.962 244.713 320.962 243.526 319.698 242.791C318.434 242.055 316.369 242.055 315.105 242.791Z" fill="#30BAEE"/>
<path d="M315.969 243.293C315.182 243.745 315.182 244.493 315.956 244.945C316.743 245.396 318.021 245.396 318.808 244.945C319.595 244.493 319.595 243.745 318.821 243.293C318.034 242.842 316.756 242.842 315.969 243.293Z" fill="#DDE1E2"/>
<path d="M414.59 329.516C413.7 330.032 413.7 330.858 414.577 331.374C415.467 331.89 416.9 331.89 417.79 331.374C418.68 330.858 418.68 330.032 417.803 329.516C416.925 329.013 415.48 329.013 414.59 329.516Z" fill="#30BAEE"/>
<path d="M415.21 329.877C414.655 330.2 414.655 330.716 415.197 331.026C415.739 331.348 416.642 331.348 417.184 331.026C417.738 330.703 417.738 330.187 417.197 329.877C416.642 329.555 415.752 329.555 415.21 329.877Z" fill="#DDE1E2"/>
<path d="M346.521 356.571C345.243 357.306 345.243 358.493 346.508 359.229C347.772 359.964 349.823 359.964 351.101 359.229C352.378 358.493 352.378 357.306 351.114 356.571C349.862 355.836 347.798 355.836 346.521 356.571Z" fill="#30BAEE"/>
<path d="M347.398 357.074C346.611 357.526 346.611 358.274 347.385 358.726C348.172 359.177 349.449 359.177 350.236 358.726C351.023 358.274 351.023 357.539 350.249 357.074C349.462 356.623 348.185 356.623 347.398 357.074Z" fill="#DDE1E2"/>
<path d="M476.415 278.709L488.117 272.026" stroke="#D1D5D6" stroke-width="1.2" stroke-miterlimit="10"/>
<path d="M133.268 244.945L130.984 248.958L128.662 247.577L127.862 247.139L125.604 245.836L133.268 244.945Z" fill="#D1D5D6"/>
<path d="M282.18 79.4031C280.903 80.1385 280.903 81.3255 282.167 82.0609C283.431 82.7963 285.483 82.7963 286.76 82.0609C288.037 81.3255 288.037 80.1385 286.773 79.4031C285.508 78.6677 283.457 78.6677 282.18 79.4031Z" fill="#0078D4"/>
<path d="M283.057 79.9063C282.27 80.3579 282.27 81.1062 283.044 81.5577C283.831 82.0093 285.108 82.0093 285.895 81.5577C286.682 81.1062 286.682 80.3708 285.908 79.9063C285.121 79.4547 283.844 79.4547 283.057 79.9063Z" fill="#29A6E4"/>
<path d="M323.13 104.678C321.853 105.413 321.853 106.6 323.117 107.336C324.381 108.071 326.433 108.071 327.71 107.336C328.987 106.6 328.987 105.413 327.723 104.678C326.459 103.942 324.407 103.942 323.13 104.678Z" fill="#30BAEE"/>
<path d="M323.994 105.181C323.207 105.632 323.207 106.381 323.982 106.832C324.769 107.284 326.046 107.284 326.833 106.832C327.62 106.381 327.62 105.632 326.846 105.181C326.059 104.729 324.794 104.729 323.994 105.181Z" fill="#DDE1E2"/>
<path d="M411.894 213.013C410.616 213.749 410.616 214.936 411.881 215.671C413.145 216.407 415.196 216.407 416.474 215.671C417.751 214.936 417.751 213.749 416.487 213.013C415.222 212.278 413.158 212.278 411.894 213.013Z" fill="#30BAEE"/>
<path d="M412.758 213.517C411.971 213.968 411.971 214.717 412.745 215.168C413.532 215.62 414.81 215.62 415.597 215.168C416.384 214.717 416.384 213.968 415.61 213.517C414.823 213.065 413.545 213.065 412.758 213.517Z" fill="#DDE1E2"/>
<path d="M215.246 364.48L212.962 368.492L210.64 367.112L209.84 366.673L207.582 365.37L215.246 364.48Z" fill="#D1D5D6"/>
<path d="M64.6438 271.525L64.5793 298.528L40.1563 284.685L40.3628 257.952L64.6438 271.525Z" fill="#D1D5D6"/>
<path d="M64.6439 271.525L88.5378 258.069L88.4733 284.943L64.5794 298.541L64.6439 271.525Z" fill="#ACB1B2"/>
<path d="M40.3628 257.965L64.1149 244.522L88.5378 258.081L64.6439 271.538L40.3628 257.965Z" fill="#EAECED"/>
<path d="M313.621 245.423L311.338 249.435L309.015 248.055L308.216 247.616L305.958 246.313L313.621 245.423Z" fill="#D1D5D6"/>
<path d="M346.301 359.771L344.017 363.783L341.695 362.403L340.895 361.964L338.65 360.661L346.301 359.771Z" fill="#DDE1E2"/>
<path d="M534.034 219.981C532.757 220.716 532.757 221.903 534.021 222.638C535.286 223.374 537.337 223.374 538.614 222.638C539.892 221.903 539.892 220.716 538.627 219.981C537.363 219.245 535.299 219.245 534.034 219.981Z" fill="#30BAEE"/>
<path d="M534.899 220.497C534.112 220.948 534.112 221.697 534.886 222.148C535.673 222.6 536.95 222.6 537.737 222.148C538.524 221.697 538.524 220.961 537.75 220.497C536.963 220.032 535.686 220.032 534.899 220.497Z" fill="#DDE1E2"/>
<path d="M559.386 235.476C558.109 236.211 558.109 237.398 559.373 238.133C560.637 238.869 562.689 238.869 563.966 238.133C565.243 237.398 565.243 236.211 563.979 235.476C562.714 234.74 560.663 234.74 559.386 235.476Z" fill="#30BAEE"/>
<path d="M560.263 235.979C559.476 236.43 559.476 237.178 560.25 237.63C561.037 238.082 562.314 238.082 563.101 237.63C563.888 237.178 563.888 236.43 563.114 235.979C562.314 235.527 561.05 235.527 560.263 235.979Z" fill="#DDE1E2"/>
<path d="M489.678 149.95L439.116 178.372L452.611 186.384L503.109 158.014L489.678 149.95Z" stroke="#D1D5D6" stroke-width="0.5" stroke-miterlimit="10" stroke-linejoin="round"/>
<path d="M494.787 152.84C493.51 153.575 493.51 154.762 494.774 155.498C496.038 156.233 498.09 156.233 499.367 155.498C500.644 154.762 500.644 153.575 499.38 152.84C498.116 152.104 496.051 152.104 494.787 152.84Z" fill="#30BAEE"/>
<path d="M495.651 153.344C494.864 153.795 494.864 154.543 495.638 154.995C496.425 155.447 497.703 155.447 498.49 154.995C499.277 154.543 499.277 153.795 498.502 153.344C497.715 152.892 496.438 152.892 495.651 153.344Z" fill="#DDE1E2"/>
<path d="M256.57 84.0787C256.095 84.0787 255.462 83.7622 255.145 83.2874C254.829 82.8127 254.829 82.1797 254.987 81.8632C254.987 81.8632 254.987 81.7049 255.145 81.7049C255.62 80.9137 256.57 80.7554 257.203 81.2302C257.677 81.5467 257.994 82.0214 257.994 82.6545C257.994 83.1292 257.677 83.7622 257.203 84.0787C257.203 84.0787 256.886 84.0787 256.57 84.0787Z" fill="#0078D4"/>
<path d="M258.585 106.642C258.11 106.642 257.477 106.326 257.161 105.851C256.686 105.06 257.002 104.11 257.635 103.635C258.427 103.161 259.376 103.319 259.851 104.11C260.326 104.901 260.168 105.851 259.376 106.326H259.218C259.06 106.642 258.902 106.642 258.585 106.642Z" fill="#0078D4"/>
<path d="M253.997 85.7528C253.522 85.7528 252.889 85.4363 252.572 84.9616C252.256 84.4868 252.256 83.8538 252.414 83.5373C252.414 83.3791 252.414 83.3791 252.572 83.2208C253.047 82.4296 253.997 82.2713 254.788 82.7461C255.263 83.0626 255.579 83.5373 255.579 84.1703C255.579 84.6451 255.263 85.2781 254.788 85.5946C254.63 85.5946 254.313 85.7528 253.997 85.7528Z" fill="#0078D4"/>
<path d="M267.606 106.801C266.973 106.801 266.498 106.484 266.182 106.009C265.707 105.218 266.023 104.269 266.815 103.794C267.606 103.319 268.555 103.636 269.03 104.427C269.505 105.218 269.188 106.168 268.397 106.484H268.239C268.239 106.801 267.922 106.801 267.606 106.801Z" fill="#0078D4"/>
<path d="M291.976 103.478C291.659 103.478 291.501 103.478 291.185 103.161H291.027C290.235 102.686 290.077 101.737 290.552 100.946C291.026 100.154 291.976 99.9961 292.767 100.471C293.559 100.946 293.717 101.895 293.242 102.686C292.925 103.161 292.451 103.478 291.976 103.478Z" fill="#0078D4"/>
<path d="M300.522 103.319L270.929 120.569L248.14 108.383L277.734 91.1338L300.522 103.319Z" fill="#84ECFD"/>
<path d="M300.522 103.319L300.364 116.771L270.771 134.02L270.929 120.569L300.522 103.319Z" fill="url(#paint0_linear)"/>
<path d="M270.927 120.568L270.769 134.02L247.981 121.834L248.139 108.383L270.927 120.568Z" fill="url(#paint1_linear)"/>
<path d="M300.522 87.8102L270.929 104.901L248.14 92.716L277.734 75.6248L300.522 87.8102Z" fill="#84ECFD"/>
<path d="M300.522 87.8101L300.364 101.261L270.771 118.353L270.929 104.901L300.522 87.8101Z" fill="url(#paint2_linear)"/>
<path d="M270.927 104.902L270.769 118.353L247.981 106.168L248.139 92.7163L270.927 104.902Z" fill="url(#paint3_linear)"/>
<path d="M300.522 72.1435L270.929 89.2347L248.14 77.0493L277.734 59.7998L300.522 72.1435Z" fill="#84ECFD"/>
<path d="M300.522 72.1431L300.364 85.5945L270.771 102.686L270.929 89.2343L300.522 72.1431Z" fill="url(#paint4_linear)"/>
<path d="M270.927 89.2345L270.769 102.686L247.981 90.5005L248.139 77.0491L270.927 89.2345Z" fill="url(#paint5_linear)"/>
<path d="M300.521 56.7929L270.928 73.8841L248.14 61.6987L277.733 44.4492L300.521 56.7929Z" fill="#84ECFD"/>
<path d="M300.522 56.7932L300.364 70.2446L270.771 87.3358L270.929 73.8844L300.522 56.7932Z" fill="url(#paint6_linear)"/>
<path d="M270.927 73.8841L270.769 87.3356L247.981 75.1502L248.139 61.6987L270.927 73.8841Z" fill="url(#paint7_linear)"/>
<path d="M279.475 125.158V124.208L278.525 124.683V125.633L279.475 125.158Z" fill="#2195DC"/>
<path d="M279.475 123.734V122.626L278.525 123.259V124.208L279.475 123.734Z" fill="#2195DC"/>
<path d="M279.475 122.151V121.202L278.525 121.676V122.626L279.475 122.151Z" fill="#2195DC"/>
<path d="M279.475 120.569V119.619L278.525 120.094V121.043L279.475 120.569Z" fill="#2195DC"/>
<path d="M278.051 125.791V124.842L277.101 125.317V126.266L278.051 125.791Z" fill="#2195DC"/>
<path d="M278.051 124.367V123.417L277.101 123.892V124.842L278.051 124.367Z" fill="#2195DC"/>
<path d="M278.051 122.942V121.993L277.101 122.467V123.417L278.051 122.942Z" fill="#2195DC"/>
<path d="M278.051 121.36V120.41L277.101 120.885V121.835L278.051 121.36Z" fill="#2195DC"/>
<path d="M276.784 126.582V125.633L275.835 126.108V127.057L276.784 126.582Z" fill="#2195DC"/>
<path d="M276.784 125.158V124.208L275.835 124.683V125.633L276.784 125.158Z" fill="#2195DC"/>
<path d="M276.784 123.734V122.784L275.835 123.259V124.208L276.784 123.734Z" fill="#2195DC"/>
<path d="M276.784 122.151V121.202L275.835 121.676V122.626L276.784 122.151Z" fill="#2195DC"/>
<path d="M275.518 127.374V126.424L274.569 126.899V127.848L275.518 127.374Z" fill="#2195DC"/>
<path d="M275.518 125.791V124.842L274.569 125.317V126.266L275.518 125.791Z" fill="#2195DC"/>
<path d="M275.518 124.367V123.417L274.569 123.892V124.842L275.518 124.367Z" fill="#2195DC"/>
<path d="M275.518 122.942V121.993L274.569 122.467V123.417L275.518 122.942Z" fill="#2195DC"/>
<path d="M278.049 88.6013L279.315 87.8101V89.2343L278.049 90.0256V88.6013ZM278.998 88.6013L278.524 88.9178V89.3926L278.998 89.0761V88.6013Z" fill="#45CAF2"/>
<path d="M278.049 90.5007L279.315 89.7095V91.1338L278.049 91.925V90.5007ZM278.998 90.5007L278.524 90.8173V91.292L278.998 90.9755V90.5007Z" fill="#45CAF2"/>
<path d="M278.049 92.5579L279.315 91.7666V93.1909L278.049 93.9821V92.5579ZM278.998 92.5579L278.524 92.8744V93.3491L278.998 93.0326V92.5579Z" fill="#45CAF2"/>
<path d="M276.466 93.5076L277.732 92.7163V94.1406L276.466 94.9318V93.5076ZM277.257 93.5076L276.782 93.8241V94.2988L277.257 93.9823V93.5076Z" fill="#45CAF2"/>
<path d="M276.31 89.5513L277.576 88.76V90.1843L276.31 90.9755V89.5513ZM277.259 89.5513L276.785 89.8678V90.3425L277.259 90.026V89.5513Z" fill="#45CAF2"/>
<path d="M276.31 91.6086L277.576 90.8174V92.2416L276.31 93.0329V91.6086ZM277.259 91.6086L276.785 91.9251V92.3999L277.259 92.0834V91.6086Z" fill="#45CAF2"/>
<path d="M274.569 90.5007L275.835 89.7095V91.1338L274.569 91.925V90.5007ZM275.518 90.5007L275.044 90.8173V91.292L275.518 90.9755V90.5007Z" fill="#45CAF2"/>
<path d="M274.569 92.5579L275.835 91.7666V93.1909L274.569 93.9821V92.5579ZM275.518 92.5579L275.044 92.8744V93.3491L275.518 93.0326V92.5579Z" fill="#45CAF2"/>
<path d="M274.569 94.457L275.835 93.6658V95.0901L274.569 95.8813V94.457ZM275.518 94.457L275.044 94.7736V95.2483L275.518 94.9318V94.457Z" fill="#45CAF2"/>
<path d="M279.475 109.332V107.908L278.209 108.541V110.124L279.475 109.332Z" fill="#32B0E7"/>
<path d="M279.475 105.376V103.793L278.209 104.585V106.009L279.475 105.376Z" fill="#32B0E7"/>
<path d="M279.475 107.434V106.01L278.209 106.643V108.067L279.475 107.434Z" fill="#32B0E7"/>
<path d="M277.734 108.383V106.959L276.31 107.592V109.174L277.734 108.383Z" fill="#32B0E7"/>
<path d="M277.734 110.282V108.858L276.31 109.649V111.073L277.734 110.282Z" fill="#32B0E7"/>
<path d="M277.734 106.325L277.576 104.901L276.31 105.534V106.958L277.734 106.325Z" fill="#32B0E7"/>
<path d="M275.994 107.434V106.01L274.728 106.643V108.067L275.994 107.434Z" fill="#32B0E7"/>
<path d="M275.994 109.332V107.908L274.728 108.699V110.124L275.994 109.332Z" fill="#32B0E7"/>
<path d="M275.994 111.39V109.966L274.728 110.757V112.181L275.994 111.39Z" fill="#32B0E7"/>
<path d="M278.05 78.3152V75.7832L275.835 77.0492V79.5812L278.05 78.3152Z" fill="#50E6FF"/>
<path d="M274.569 76.2579L279.316 73.4094V78.9482L274.569 81.7968V76.2579ZM278.525 74.9919L275.518 76.7327V80.2142L278.525 78.4735V74.9919Z" fill="#50E6FF"/>
<path d="M369.928 300.921C369.453 300.921 368.82 300.604 368.503 300.129C368.187 299.654 368.187 299.021 368.345 298.705C368.345 298.705 368.345 298.547 368.503 298.547C368.978 297.755 369.928 297.597 370.561 298.072C371.035 298.388 371.352 298.863 371.352 299.496C371.352 299.971 371.035 300.604 370.561 300.921C370.561 300.921 370.244 300.921 369.928 300.921Z" fill="#0078D4"/>
<path d="M371.943 323.484C371.468 323.484 370.835 323.168 370.519 322.693C370.044 321.902 370.361 320.952 370.994 320.477C371.785 320.003 372.734 320.161 373.209 320.952C373.684 321.744 373.526 322.693 372.734 323.168H372.576C372.418 323.484 372.26 323.484 371.943 323.484Z" fill="#0078D4"/>
<path d="M367.355 302.595C366.88 302.595 366.247 302.278 365.93 301.804C365.614 301.329 365.614 300.696 365.772 300.379C365.772 300.221 365.772 300.221 365.93 300.063C366.405 299.272 367.355 299.113 368.146 299.588C368.621 299.905 368.937 300.379 368.937 301.012C368.937 301.487 368.621 302.12 368.146 302.437C367.988 302.437 367.671 302.595 367.355 302.595Z" fill="#0078D4"/>
<path d="M380.964 323.643C380.331 323.643 379.856 323.326 379.54 322.851C379.065 322.06 379.381 321.111 380.173 320.636C380.964 320.161 381.913 320.478 382.388 321.269C382.863 322.06 382.546 323.01 381.755 323.326H381.597C381.597 323.643 381.28 323.643 380.964 323.643Z" fill="#0078D4"/>
<path d="M405.334 320.32C405.018 320.32 404.859 320.319 404.543 320.003H404.385C403.593 319.528 403.435 318.579 403.91 317.787C404.385 316.996 405.334 316.838 406.125 317.313C406.917 317.787 407.075 318.737 406.6 319.528C406.284 320.003 405.809 320.32 405.334 320.32Z" fill="#0078D4"/>
<path d="M413.88 320.161L384.287 337.411L361.499 325.225L391.092 307.976L413.88 320.161Z" fill="#84ECFD"/>
<path d="M413.88 320.161L413.722 333.613L384.129 350.862L384.287 337.411L413.88 320.161Z" fill="url(#paint8_linear)"/>
<path d="M384.285 337.41L384.127 350.862L361.339 338.676L361.497 325.225L384.285 337.41Z" fill="url(#paint9_linear)"/>
<path d="M413.88 304.652L384.287 321.743L361.499 309.558L391.092 292.467L413.88 304.652Z" fill="#84ECFD"/>
<path d="M413.88 304.652L413.722 318.104L384.129 335.195L384.287 321.744L413.88 304.652Z" fill="url(#paint10_linear)"/>
<path d="M384.285 321.744L384.127 335.195L361.339 323.01L361.497 309.558L384.285 321.744Z" fill="url(#paint11_linear)"/>
<path d="M413.88 288.985L384.287 306.076L361.499 293.891L391.092 276.642L413.88 288.985Z" fill="#84ECFD"/>
<path d="M413.88 288.985L413.722 302.437L384.129 319.528L384.287 306.076L413.88 288.985Z" fill="url(#paint12_linear)"/>
<path d="M384.285 306.076L384.127 319.528L361.339 307.342L361.497 293.891L384.285 306.076Z" fill="url(#paint13_linear)"/>
<path d="M413.879 273.635L384.286 290.726L361.498 278.541L391.091 261.292L413.879 273.635Z" fill="#84ECFD"/>
<path d="M413.88 273.635L413.722 287.087L384.129 304.178L384.287 290.726L413.88 273.635Z" fill="url(#paint14_linear)"/>
<path d="M384.285 290.726L384.127 304.178L361.339 291.992L361.497 278.541L384.285 290.726Z" fill="url(#paint15_linear)"/>
<path d="M392.833 342V341.05L391.883 341.525V342.475L392.833 342Z" fill="#2195DC"/>
<path d="M392.833 340.576V339.468L391.883 340.101V341.05L392.833 340.576Z" fill="#2195DC"/>
<path d="M392.833 338.993V338.044L391.883 338.518V339.468L392.833 338.993Z" fill="#2195DC"/>
<path d="M392.833 337.411V336.461L391.883 336.936V337.886L392.833 337.411Z" fill="#2195DC"/>
<path d="M391.409 342.633V341.684L390.459 342.159V343.108L391.409 342.633Z" fill="#2195DC"/>
<path d="M391.409 341.209V340.259L390.459 340.734V341.684L391.409 341.209Z" fill="#2195DC"/>
<path d="M391.409 339.784V338.834L390.459 339.309V340.259L391.409 339.784Z" fill="#2195DC"/>
<path d="M391.409 338.202V337.252L390.459 337.727V338.677L391.409 338.202Z" fill="#2195DC"/>
<path d="M390.142 343.424V342.474L389.193 342.949V343.899L390.142 343.424Z" fill="#2195DC"/>
<path d="M390.142 342V341.05L389.193 341.525V342.475L390.142 342Z" fill="#2195DC"/>
<path d="M390.142 340.576V339.626L389.193 340.101V341.05L390.142 340.576Z" fill="#2195DC"/>
<path d="M390.142 338.993V338.044L389.193 338.518V339.468L390.142 338.993Z" fill="#2195DC"/>
<path d="M388.876 344.216V343.266L387.927 343.741V344.69L388.876 344.216Z" fill="#2195DC"/>
<path d="M388.876 342.633V341.684L387.927 342.159V343.108L388.876 342.633Z" fill="#2195DC"/>
<path d="M388.876 341.209V340.259L387.927 340.734V341.684L388.876 341.209Z" fill="#2195DC"/>
<path d="M388.876 339.784V338.834L387.927 339.309V340.259L388.876 339.784Z" fill="#2195DC"/>
<path d="M391.407 305.444L392.673 304.652V306.077L391.407 306.868V305.444ZM392.357 305.444L391.882 305.76V306.235L392.357 305.918V305.444Z" fill="#45CAF2"/>
<path d="M391.407 307.343L392.673 306.552V307.976L391.407 308.767V307.343ZM392.357 307.343L391.882 307.659V308.134L392.357 307.818V307.343Z" fill="#45CAF2"/>
<path d="M391.407 309.4L392.673 308.609V310.033L391.407 310.824V309.4ZM392.357 309.4L391.882 309.717V310.191L392.357 309.875V309.4Z" fill="#45CAF2"/>
<path d="M389.824 310.35L391.09 309.558V310.983L389.824 311.774V310.35ZM390.615 310.35L390.14 310.666V311.141L390.615 310.824V310.35Z" fill="#45CAF2"/>
<path d="M389.668 306.393L390.934 305.602V307.026L389.668 307.818V306.393ZM390.618 306.393L390.143 306.71V307.185L390.618 306.868V306.393Z" fill="#45CAF2"/>
<path d="M389.668 308.451L390.934 307.659V309.084L389.668 309.875V308.451ZM390.618 308.451L390.143 308.767V309.242L390.618 308.925V308.451Z" fill="#45CAF2"/>
<path d="M387.927 307.343L389.193 306.552V307.976L387.927 308.767V307.343ZM388.876 307.343L388.402 307.659V308.134L388.876 307.818V307.343Z" fill="#45CAF2"/>
<path d="M387.927 309.4L389.193 308.609V310.033L387.927 310.824V309.4ZM388.876 309.4L388.402 309.717V310.191L388.876 309.875V309.4Z" fill="#45CAF2"/>
<path d="M387.927 311.299L389.193 310.508V311.932L387.927 312.723V311.299ZM388.876 311.299L388.402 311.616V312.09L388.876 311.774V311.299Z" fill="#45CAF2"/>
<path d="M392.833 326.174V324.75L391.567 325.383V326.966L392.833 326.174Z" fill="#32B0E7"/>
<path d="M392.833 322.218V320.635L391.567 321.427V322.851L392.833 322.218Z" fill="#32B0E7"/>
<path d="M392.833 324.276V322.852L391.567 323.485V324.909L392.833 324.276Z" fill="#32B0E7"/>
<path d="M391.092 325.225V323.801L389.668 324.434V326.016L391.092 325.225Z" fill="#32B0E7"/>
<path d="M391.092 327.124V325.7L389.668 326.491V327.915L391.092 327.124Z" fill="#32B0E7"/>
<path d="M391.092 323.167L390.934 321.743L389.668 322.376V323.8L391.092 323.167Z" fill="#32B0E7"/>
<path d="M389.352 324.276V322.852L388.086 323.485V324.909L389.352 324.276Z" fill="#32B0E7"/>
<path d="M389.352 326.174V324.75L388.086 325.541V326.966L389.352 326.174Z" fill="#32B0E7"/>
<path d="M389.352 328.232V326.808L388.086 327.599V329.023L389.352 328.232Z" fill="#32B0E7"/>
<path d="M391.408 295.157V292.625L389.193 293.891V296.423L391.408 295.157Z" fill="#50E6FF"/>
<path d="M387.927 293.1L392.675 290.251V295.79L387.927 298.639V293.1ZM391.883 291.834L388.876 293.575V297.056L391.883 295.316V291.834Z" fill="#50E6FF"/>
<path d="M406.884 200.709L406.793 232.494C406.793 235.4 404.886 238.216 401.163 240.395C393.625 244.754 381.274 244.754 373.645 240.395C369.831 238.125 367.924 235.219 367.924 232.313L368.015 200.527C368.015 203.433 369.922 206.339 373.736 208.519C381.365 212.878 393.716 212.878 401.253 208.519C405.068 206.43 406.884 203.524 406.884 200.709Z" fill="url(#paint16_linear)"/>
<path d="M401.162 192.626C408.791 196.985 408.791 204.16 401.253 208.61C393.715 212.969 381.364 212.969 373.736 208.61C366.107 204.16 366.107 197.076 373.645 192.626C381.274 188.267 393.534 188.267 401.162 192.626Z" fill="white"/>
<path d="M397.984 194.533C403.796 197.893 403.796 203.342 398.075 206.702C392.263 210.063 382.909 210.063 377.097 206.702C371.194 203.342 371.103 197.893 376.915 194.533C382.727 191.173 392.081 191.173 397.984 194.533Z" fill="#EDEDED"/>
<path fill-rule="evenodd" clip-rule="evenodd" d="M402.133 202.135C402.936 199.459 401.561 196.601 397.984 194.533C392.081 191.173 382.727 191.173 376.915 194.533C373.384 196.574 372.032 199.387 372.838 202.033C373.344 200.378 374.701 198.795 376.915 197.515C382.727 194.155 392.081 194.155 397.984 197.515C400.243 198.821 401.625 200.443 402.133 202.135Z" fill="#ACACAC"/>
<path d="M258.701 252.405L258.61 284.191C258.61 287.097 256.703 289.912 252.98 292.092C245.442 296.451 233.091 296.451 225.463 292.092C221.648 289.821 219.741 286.915 219.741 284.009L219.832 252.224C219.832 255.13 221.739 258.036 225.553 260.215C233.182 264.575 245.533 264.575 253.071 260.215C256.885 258.127 258.701 255.221 258.701 252.405Z" fill="url(#paint17_linear)"/>
<path d="M252.979 244.323C260.608 248.682 260.608 255.856 253.07 260.306C245.533 264.666 233.182 264.666 225.553 260.306C217.925 255.856 217.925 248.773 225.462 244.323C233.091 239.964 245.351 239.964 252.979 244.323Z" fill="white"/>
<path d="M249.801 246.23C255.614 249.59 255.614 255.039 249.892 258.399C244.08 261.759 234.726 261.759 228.914 258.399C223.011 255.039 222.92 249.59 228.732 246.23C234.544 242.869 243.898 242.869 249.801 246.23Z" fill="#EDEDED"/>
<path fill-rule="evenodd" clip-rule="evenodd" d="M253.95 253.832C254.754 251.156 253.378 248.297 249.801 246.23C243.898 242.869 234.544 242.869 228.732 246.23C225.201 248.271 223.849 251.083 224.655 253.73C225.161 252.075 226.518 250.492 228.732 249.212C234.544 245.852 243.898 245.852 249.801 249.212C252.061 250.518 253.442 252.14 253.95 253.832Z" fill="#ACACAC"/>
<path d="M487.575 269.885C486.298 270.62 486.298 271.807 487.562 272.542C488.827 273.278 490.878 273.278 492.155 272.542C493.433 271.807 493.433 270.62 492.168 269.885C490.917 269.149 488.853 269.149 487.575 269.885Z" fill="#30BAEE"/>
<path d="M488.452 270.387C487.665 270.839 487.665 271.587 488.44 272.039C489.227 272.49 490.504 272.49 491.291 272.039C492.078 271.587 492.078 270.852 491.304 270.387C490.517 269.936 489.239 269.936 488.452 270.387Z" fill="#DDE1E2"/>
<path d="M571.892 173.726C571.417 173.726 570.784 173.41 570.468 172.935C570.151 172.46 570.151 171.827 570.309 171.511C570.309 171.511 570.31 171.352 570.468 171.352C570.943 170.561 571.892 170.403 572.525 170.878C573 171.194 573.316 171.669 573.316 172.302C573.316 172.777 573 173.41 572.525 173.726C572.525 173.726 572.209 173.726 571.892 173.726Z" fill="#0078D4"/>
<path d="M573.908 196.29C573.433 196.29 572.8 195.973 572.483 195.499C572.008 194.707 572.325 193.758 572.958 193.283C573.749 192.808 574.699 192.967 575.174 193.758C575.648 194.549 575.49 195.499 574.699 195.973H574.54C574.382 196.29 574.224 196.29 573.908 196.29Z" fill="#0078D4"/>
<path d="M569.319 175.401C568.844 175.401 568.211 175.084 567.895 174.609C567.578 174.135 567.578 173.502 567.737 173.185C567.737 173.027 567.736 173.027 567.895 172.869C568.37 172.077 569.319 171.919 570.11 172.394C570.585 172.71 570.902 173.185 570.902 173.818C570.902 174.293 570.585 174.926 570.11 175.242C569.952 175.242 569.636 175.401 569.319 175.401Z" fill="#0078D4"/>
<path d="M582.928 196.448C582.295 196.448 581.821 196.132 581.504 195.657C581.029 194.866 581.346 193.916 582.137 193.442C582.928 192.967 583.878 193.283 584.353 194.075C584.827 194.866 584.511 195.815 583.72 196.132H583.561C583.561 196.448 583.245 196.448 582.928 196.448Z" fill="#0078D4"/>
<path d="M607.299 193.125C606.982 193.125 606.824 193.125 606.507 192.809H606.349C605.558 192.334 605.399 191.384 605.874 190.593C606.349 189.802 607.299 189.644 608.09 190.118C608.881 190.593 609.039 191.543 608.565 192.334C608.248 192.809 607.773 193.125 607.299 193.125Z" fill="#0078D4"/>
<path d="M615.844 192.967L586.251 210.216L563.463 198.031L593.056 180.781L615.844 192.967Z" fill="#84ECFD"/>
<path d="M615.845 192.967L615.686 206.418L586.093 223.668L586.252 210.216L615.845 192.967Z" fill="url(#paint18_linear)"/>
<path d="M586.25 210.216L586.091 223.667L563.303 211.482L563.461 198.031L586.25 210.216Z" fill="url(#paint19_linear)"/>
<path d="M615.844 177.458L586.251 194.549L563.463 182.364L593.056 165.272L615.844 177.458Z" fill="#84ECFD"/>
<path d="M615.845 177.458L615.686 190.909L586.093 208.001L586.252 194.549L615.845 177.458Z" fill="url(#paint20_linear)"/>
<path d="M586.25 194.549L586.091 208.001L563.303 195.815L563.461 182.364L586.25 194.549Z" fill="url(#paint21_linear)"/>
<path d="M615.844 161.791L586.251 178.882L563.463 166.697L593.056 149.447L615.844 161.791Z" fill="#84ECFD"/>
<path d="M615.845 161.791L615.686 175.242L586.093 192.333L586.252 178.882L615.845 161.791Z" fill="url(#paint22_linear)"/>
<path d="M586.25 178.882L586.091 192.333L563.303 180.148L563.461 166.697L586.25 178.882Z" fill="url(#paint23_linear)"/>
<path d="M615.843 146.441L586.25 163.532L563.462 151.347L593.055 134.097L615.843 146.441Z" fill="#84ECFD"/>
<path d="M615.845 146.441L615.686 159.892L586.093 176.984L586.252 163.532L615.845 146.441Z" fill="url(#paint24_linear)"/>
<path d="M586.25 163.532L586.091 176.984L563.303 164.798L563.461 151.347L586.25 163.532Z" fill="url(#paint25_linear)"/>
<path d="M594.797 214.805V213.856L593.848 214.331V215.28L594.797 214.805Z" fill="#2195DC"/>
<path d="M594.797 213.381V212.273L593.848 212.906V213.856L594.797 213.381Z" fill="#2195DC"/>
<path d="M594.797 211.799V210.849L593.848 211.324V212.274L594.797 211.799Z" fill="#2195DC"/>
<path d="M594.797 210.217V209.267L593.848 209.742V210.691L594.797 210.217Z" fill="#2195DC"/>
<path d="M593.373 215.439V214.49L592.424 214.964V215.914L593.373 215.439Z" fill="#2195DC"/>
<path d="M593.373 214.014V213.065L592.424 213.54V214.489L593.373 214.014Z" fill="#2195DC"/>
<path d="M593.373 212.59V211.64L592.424 212.115V213.064L593.373 212.59Z" fill="#2195DC"/>
<path d="M593.373 211.008V210.058L592.424 210.533V211.482L593.373 211.008Z" fill="#2195DC"/>
<path d="M592.107 216.23V215.28L591.157 215.755V216.704L592.107 216.23Z" fill="#2195DC"/>
<path d="M592.107 214.805V213.856L591.157 214.331V215.28L592.107 214.805Z" fill="#2195DC"/>
<path d="M592.107 213.381V212.432L591.157 212.907V213.856L592.107 213.381Z" fill="#2195DC"/>
<path d="M592.107 211.799V210.849L591.157 211.324V212.274L592.107 211.799Z" fill="#2195DC"/>
<path d="M590.841 217.021V216.072L589.891 216.547V217.496L590.841 217.021Z" fill="#2195DC"/>
<path d="M590.841 215.439V214.49L589.891 214.964V215.914L590.841 215.439Z" fill="#2195DC"/>
<path d="M590.841 214.014V213.065L589.891 213.54V214.489L590.841 214.014Z" fill="#2195DC"/>
<path d="M590.841 212.59V211.64L589.891 212.115V213.064L590.841 212.59Z" fill="#2195DC"/>
<path d="M593.371 178.249L594.637 177.458V178.882L593.371 179.674V178.249ZM594.321 178.249L593.846 178.566V179.041L594.321 178.724V178.249Z" fill="#45CAF2"/>
<path d="M593.371 180.148L594.637 179.357V180.781L593.371 181.573V180.148ZM594.321 180.148L593.846 180.465V180.94L594.321 180.623V180.148Z" fill="#45CAF2"/>
<path d="M593.371 182.206L594.637 181.415V182.839L593.371 183.63V182.206ZM594.321 182.206L593.846 182.522V182.997L594.321 182.681V182.206Z" fill="#45CAF2"/>
<path d="M591.788 183.155L593.054 182.364V183.788L591.788 184.58V183.155ZM592.58 183.155L592.105 183.472V183.947L592.58 183.63V183.155Z" fill="#45CAF2"/>
<path d="M591.632 179.199L592.898 178.408V179.832L591.632 180.623V179.199ZM592.582 179.199L592.107 179.515V179.99L592.582 179.674V179.199Z" fill="#45CAF2"/>
<path d="M591.632 181.256L592.898 180.465V181.889L591.632 182.681V181.256ZM592.582 181.256L592.107 181.573V182.048L592.582 181.731V181.256Z" fill="#45CAF2"/>
<path d="M589.891 180.148L591.157 179.357V180.781L589.891 181.573V180.148ZM590.841 180.148L590.366 180.465V180.94L590.841 180.623V180.148Z" fill="#45CAF2"/>
<path d="M589.891 182.206L591.157 181.415V182.839L589.891 183.63V182.206ZM590.841 182.206L590.366 182.522V182.997L590.841 182.681V182.206Z" fill="#45CAF2"/>
<path d="M589.891 184.105L591.157 183.313V184.738L589.891 185.529V184.105ZM590.841 184.105L590.366 184.421V184.896L590.841 184.579V184.105Z" fill="#45CAF2"/>
<path d="M594.797 198.98V197.556L593.531 198.189V199.771L594.797 198.98Z" fill="#32B0E7"/>
<path d="M594.797 195.023V193.441L593.531 194.232V195.656L594.797 195.023Z" fill="#32B0E7"/>
<path d="M594.797 197.082V195.657L593.531 196.29V197.715L594.797 197.082Z" fill="#32B0E7"/>
<path d="M593.057 198.031V196.606L591.632 197.239V198.822L593.057 198.031Z" fill="#32B0E7"/>
<path d="M593.057 199.93V198.505L591.632 199.297V200.721L593.057 199.93Z" fill="#32B0E7"/>
<path d="M593.057 195.973L592.898 194.549L591.632 195.182V196.606L593.057 195.973Z" fill="#32B0E7"/>
<path d="M591.316 197.082V195.657L590.05 196.29V197.715L591.316 197.082Z" fill="#32B0E7"/>
<path d="M591.316 198.98V197.556L590.05 198.347V199.771L591.316 198.98Z" fill="#32B0E7"/>
<path d="M591.316 201.038V199.613L590.05 200.405V201.829L591.316 201.038Z" fill="#32B0E7"/>
<path d="M593.373 167.963V165.431L591.157 166.697V169.229L593.373 167.963Z" fill="#50E6FF"/>
<path d="M589.891 165.906L594.639 163.057V168.596L589.891 171.444V165.906ZM593.848 164.64L590.841 166.38V169.862L593.848 168.121V164.64Z" fill="#50E6FF"/>
<path d="M152.461 181.275L152.461 190.293L126.103 175.443L126.258 166.722L152.461 181.275Z" fill="#D1D5D6"/>
<path d="M152.461 181.274L178.175 166.721L178.175 175.585L152.461 190.292L152.461 181.274Z" fill="#ACB1B2"/>
<path d="M126.258 166.722L151.816 152.169L178.175 166.722L152.449 181.275L126.258 166.722Z" fill="#EAECED"/>
<path d="M277.316 224.267L277.316 233.285L250.958 218.435L251.113 209.713L277.316 224.267Z" fill="#D1D5D6"/>
<path d="M277.316 224.266L303.029 209.713L303.029 218.576L277.316 233.284L277.316 224.266Z" fill="#ACB1B2"/>
<path d="M251.113 209.714L276.671 195.161L303.029 209.714L277.303 224.267L251.113 209.714Z" fill="#EAECED"/>
<defs>
<linearGradient id="paint0_linear" x1="290.212" y1="47.1665" x2="285.014" y2="129.321" gradientUnits="userSpaceOnUse">
<stop stop-color="#50E6FF"/>
<stop offset="0.7998" stop-color="#0078D4"/>
</linearGradient>
<linearGradient id="paint1_linear" x1="260.69" y1="71.9503" x2="259.092" y2="139.456" gradientUnits="userSpaceOnUse">
<stop stop-color="#50E6FF"/>
<stop offset="0.7998" stop-color="#0078D4"/>
</linearGradient>
<linearGradient id="paint2_linear" x1="289.231" y1="47.1044" x2="284.032" y2="129.259" gradientUnits="userSpaceOnUse">
<stop stop-color="#50E6FF"/>
<stop offset="0.7998" stop-color="#0078D4"/>
</linearGradient>
<linearGradient id="paint3_linear" x1="260.32" y1="71.9426" x2="258.723" y2="139.448" gradientUnits="userSpaceOnUse">
<stop stop-color="#50E6FF"/>
<stop offset="0.7998" stop-color="#0078D4"/>
</linearGradient>
<linearGradient id="paint4_linear" x1="288.247" y1="47.0427" x2="283.046" y2="129.198" gradientUnits="userSpaceOnUse">
<stop stop-color="#50E6FF"/>
<stop offset="0.7998" stop-color="#0078D4"/>
</linearGradient>
<linearGradient id="paint5_linear" x1="259.952" y1="71.9328" x2="258.354" y2="139.438" gradientUnits="userSpaceOnUse">
<stop stop-color="#50E6FF"/>
<stop offset="0.7998" stop-color="#0078D4"/>
</linearGradient>
<linearGradient id="paint6_linear" x1="287.275" y1="46.9816" x2="282.075" y2="129.137" gradientUnits="userSpaceOnUse">
<stop stop-color="#50E6FF"/>
<stop offset="0.7998" stop-color="#0078D4"/>
</linearGradient>
<linearGradient id="paint7_linear" x1="259.587" y1="71.9234" x2="257.99" y2="139.431" gradientUnits="userSpaceOnUse">
<stop stop-color="#50E6FF"/>
<stop offset="0.7998" stop-color="#0078D4"/>
</linearGradient>
<linearGradient id="paint8_linear" x1="403.57" y1="264.009" x2="398.372" y2="346.164" gradientUnits="userSpaceOnUse">
<stop stop-color="#50E6FF"/>
<stop offset="0.7998" stop-color="#0078D4"/>
</linearGradient>
<linearGradient id="paint9_linear" x1="374.048" y1="288.792" x2="372.45" y2="356.298" gradientUnits="userSpaceOnUse">
<stop stop-color="#50E6FF"/>
<stop offset="0.7998" stop-color="#0078D4"/>
</linearGradient>
<linearGradient id="paint10_linear" x1="402.589" y1="263.947" x2="397.39" y2="346.102" gradientUnits="userSpaceOnUse">
<stop stop-color="#50E6FF"/>
<stop offset="0.7998" stop-color="#0078D4"/>
</linearGradient>
<linearGradient id="paint11_linear" x1="373.678" y1="288.785" x2="372.081" y2="356.29" gradientUnits="userSpaceOnUse">
<stop stop-color="#50E6FF"/>
<stop offset="0.7998" stop-color="#0078D4"/>
</linearGradient>
<linearGradient id="paint12_linear" x1="401.605" y1="263.885" x2="396.405" y2="346.04" gradientUnits="userSpaceOnUse">
<stop stop-color="#50E6FF"/>
<stop offset="0.7998" stop-color="#0078D4"/>
</linearGradient>
<linearGradient id="paint13_linear" x1="373.31" y1="288.775" x2="371.712" y2="356.28" gradientUnits="userSpaceOnUse">
<stop stop-color="#50E6FF"/>
<stop offset="0.7998" stop-color="#0078D4"/>
</linearGradient>
<linearGradient id="paint14_linear" x1="400.633" y1="263.824" x2="395.433" y2="345.979" gradientUnits="userSpaceOnUse">
<stop stop-color="#50E6FF"/>
<stop offset="0.7998" stop-color="#0078D4"/>
</linearGradient>
<linearGradient id="paint15_linear" x1="372.945" y1="288.766" x2="371.348" y2="356.273" gradientUnits="userSpaceOnUse">
<stop stop-color="#50E6FF"/>
<stop offset="0.7998" stop-color="#0078D4"/>
</linearGradient>
<linearGradient id="paint16_linear" x1="367.924" y1="207.945" x2="367.924" y2="256.264" gradientUnits="userSpaceOnUse">
<stop offset="0.03625" stop-color="#45CAF2"/>
<stop offset="0.647517" stop-color="#0078D4"/>
</linearGradient>
<linearGradient id="paint17_linear" x1="219.741" y1="259.642" x2="219.741" y2="307.96" gradientUnits="userSpaceOnUse">
<stop offset="0.03625" stop-color="#45CAF2"/>
<stop offset="0.647517" stop-color="#0078D4"/>
</linearGradient>
<linearGradient id="paint18_linear" x1="605.535" y1="136.814" x2="600.336" y2="218.969" gradientUnits="userSpaceOnUse">
<stop stop-color="#50E6FF"/>
<stop offset="0.7998" stop-color="#0078D4"/>
</linearGradient>
<linearGradient id="paint19_linear" x1="576.012" y1="161.598" x2="574.414" y2="229.103" gradientUnits="userSpaceOnUse">
<stop stop-color="#50E6FF"/>
<stop offset="0.7998" stop-color="#0078D4"/>
</linearGradient>
<linearGradient id="paint20_linear" x1="604.553" y1="136.752" x2="599.355" y2="218.907" gradientUnits="userSpaceOnUse">
<stop stop-color="#50E6FF"/>
<stop offset="0.7998" stop-color="#0078D4"/>
</linearGradient>
<linearGradient id="paint21_linear" x1="575.642" y1="161.59" x2="574.045" y2="229.096" gradientUnits="userSpaceOnUse">
<stop stop-color="#50E6FF"/>
<stop offset="0.7998" stop-color="#0078D4"/>
</linearGradient>
<linearGradient id="paint22_linear" x1="603.569" y1="136.69" x2="598.369" y2="218.845" gradientUnits="userSpaceOnUse">
<stop stop-color="#50E6FF"/>
<stop offset="0.7998" stop-color="#0078D4"/>
</linearGradient>
<linearGradient id="paint23_linear" x1="575.275" y1="161.58" x2="573.676" y2="229.086" gradientUnits="userSpaceOnUse">
<stop stop-color="#50E6FF"/>
<stop offset="0.7998" stop-color="#0078D4"/>
</linearGradient>
<linearGradient id="paint24_linear" x1="602.597" y1="136.629" x2="597.397" y2="218.784" gradientUnits="userSpaceOnUse">
<stop stop-color="#50E6FF"/>
<stop offset="0.7998" stop-color="#0078D4"/>
</linearGradient>
<linearGradient id="paint25_linear" x1="574.909" y1="161.571" x2="573.312" y2="229.078" gradientUnits="userSpaceOnUse">
<stop stop-color="#50E6FF"/>
<stop offset="0.7998" stop-color="#0078D4"/>
</linearGradient>
</defs>
</svg>
